<svg xmlns="http://www.w3.org/2000/svg" width="1080" height="1920" viewBox="0 0 1080 1920"><rect width="1080" height="1920" fill="#DCEBEA"/><g transform="translate(-54,-95) scale(1.1)"><defs><linearGradient id="g" x1="0" y1="0" x2="0" y2="1"><stop offset="0" stop-color="#F4F9FA"/><stop offset="1" stop-color="#E6F0F2"/></linearGradient></defs><rect width="1080" height="1920" fill="url(#g)"/><rect y="1300" width="1080" height="1920" fill="#D8E6E8"/><line x1="0" y1="1300" x2="1080" y2="1300" stroke="#2B4A5E" stroke-width="4.2" opacity=".5"/><defs><radialGradient id="star"><stop offset="0" stop-color="#FFF1C2" stop-opacity="0.75"/><stop offset="1" stop-color="#FFF1C2" stop-opacity="0"/></radialGradient></defs><circle cx="760" cy="330" r="260" fill="url(#star)"/><path d="M760,260 Q772.6,317.4 830,330 Q772.6,342.6 760,400 Q747.4,342.6 690,330 Q747.4,317.4 760,260 Z" fill="#FFF4C8" opacity="1.0" stroke="#2B4A5E" stroke-width="4.2"/><path d="M620,210 Q623.6,226.4 640,230 Q623.6,233.6 620,250 Q616.4,233.6 600,230 Q616.4,226.4 620,210 Z" fill="#FFFFFF" opacity="1.0" stroke="#2B4A5E" stroke-width="4.2"/><path d="M900,446 Q904.32,465.68 924,470 Q904.32,474.32 900,494 Q895.68,474.32 876,470 Q895.68,465.68 900,446 Z" fill="#FFFFFF" opacity="1.0" stroke="#2B4A5E" stroke-width="4.2"/><path d="M180,1180 q-36.0,-54.0 -57.6,-91.8 q32.4,10.8 57.6,91.8 z" fill="#A8D2C6" stroke="#2B4A5E" stroke-width="4.8999999999999995"/><path d="M180,1180 q36.0,-54.0 57.6,-91.8 q-32.4,10.8 -57.6,91.8 z" fill="#A8D2C6" stroke="#2B4A5E" stroke-width="4.8999999999999995"/><path d="M180,1180 q-12.6,-81.0 -20.160000000000004,-137.70000000000002 q11.34,16.2 20.160000000000004,137.70000000000002 z" fill="#A8D2C6" stroke="#2B4A5E" stroke-width="4.8999999999999995"/><path d="M180,1180 q16.2,-75.60000000000001 25.92,-128.51999999999998 q-14.58,15.120000000000001 -25.92,128.51999999999998 z" fill="#A8D2C6" stroke="#2B4A5E" stroke-width="4.8999999999999995"/><path d="M138.6,1180 h82.8 l-10.8,77.4 h-61.2 z" fill="#E3EFF1" stroke="#2B4A5E" stroke-width="7" stroke-linejoin="round" /><ellipse cx="500" cy="1296" rx="110" ry="16" fill="#2B4A5E" opacity=".08"/><path d="M470.32,972.0 L468.2,1268.8" fill="none" stroke="#2B4A5E" stroke-width="62.760000000000005" stroke-linecap="round" stroke-linejoin="round"/><path d="M470.32,972.0 L468.2,1268.8" fill="none" stroke="#CFE6EA" stroke-width="48.760000000000005" stroke-linecap="round" stroke-linejoin="round"/><path d="M529.68,972.0 L531.8,1268.8" fill="none" stroke="#2B4A5E" stroke-width="62.760000000000005" stroke-linecap="round" stroke-linejoin="round"/><path d="M529.68,972.0 L531.8,1268.8" fill="none" stroke="#CFE6EA" stroke-width="48.760000000000005" stroke-linecap="round" stroke-linejoin="round"/><path d="M438.52,1275.16 h53.0 v19.080000000000002 h-57.24 z" fill="#E9F1F3" stroke="#2B4A5E" stroke-width="7" stroke-linejoin="round" /><path d="M508.48,1275.16 h53.0 v19.080000000000002 h-48.760000000000005 z" fill="#E9F1F3" stroke="#2B4A5E" stroke-width="7" stroke-linejoin="round" /><path d="M427.92,721.8399999999999 L415.2,844.8 L415.2,972.0" fill="none" stroke="#2B4A5E" stroke-width="50.04" stroke-linecap="round" stroke-linejoin="round"/><path d="M427.92,721.8399999999999 L415.2,844.8 L415.2,972.0" fill="none" stroke="#CFE6EA" stroke-width="36.04" stroke-linecap="round" stroke-linejoin="round"/><path d="M572.08,721.8399999999999 L584.8,844.8 L584.8,972.0" fill="none" stroke="#2B4A5E" stroke-width="50.04" stroke-linecap="round" stroke-linejoin="round"/><path d="M572.08,721.8399999999999 L584.8,844.8 L584.8,972.0" fill="none" stroke="#CFE6EA" stroke-width="36.04" stroke-linecap="round" stroke-linejoin="round"/><path d="M419.44,709.12 Q500,654.0 580.56,709.12 L567.84,982.5999999999999 L432.15999999999997,982.5999999999999 Z" fill="#CFE6EA" stroke="#2B4A5E" stroke-width="7" stroke-linejoin="round" /><path d="M472.44,681.56 L500,738.8 L527.56,681.56" fill="none" stroke="#2B4A5E" stroke-width="5.6000000000000005" stroke-linecap="round"/><path d="M500.0,669.9 L500.0,643.824" fill="none" stroke="#2B4A5E" stroke-width="41.56" stroke-linecap="round" stroke-linejoin="round"/><path d="M500.0,669.9 L500.0,643.824" fill="none" stroke="#F7FBFB" stroke-width="27.560000000000002" stroke-linecap="round" stroke-linejoin="round"/><ellipse cx="500.0" cy="586.16" rx="43.88400000000001" ry="48.760000000000005" transform="rotate(22 500.0 586.16)" fill="#F7FBFB" stroke="#2B4A5E" stroke-width="7"/></g></svg>