<svg xmlns="http://www.w3.org/2000/svg" width="1080" height="1920" viewBox="0 0 1080 1920"><rect width="1080" height="1920" fill="#DCEBEA"/><g transform="translate(-54,-95) scale(1.1)"><defs><linearGradient id="g" x1="0" y1="0" x2="0" y2="1"><stop offset="0" stop-color="#EEF3F4"/><stop offset="1" stop-color="#E1EAEC"/></linearGradient></defs><rect width="1080" height="1920" fill="url(#g)"/><rect y="1300" width="1080" height="1920" fill="#D3E0E2"/><line x1="0" y1="1300" x2="1080" y2="1300" stroke="#2B4A5E" stroke-width="4.2" opacity=".5"/><path d="M120,200 h840 v1060 h-840 z" fill="#DCE6E9" stroke="#2B4A5E" stroke-width="7" stroke-linejoin="round" /><rect x="390" y="420" width="300" height="840" rx="6" fill="#E9F0F2" stroke="#2B4A5E" stroke-width="7" /><circle cx="664" cy="882.0" r="9" fill="#2B4A5E" stroke="#2B4A5E" stroke-width="0" /><path d="M470.0,600 v-70.0 h140.0 v70.0 M470.0,572.0 h140.0" fill="none" stroke="#2B4A5E" stroke-width="5.6000000000000005" stroke-linejoin="round" /><circle cx="503.6" cy="552.4" r="14.0" fill="none" stroke="#2B4A5E" stroke-width="4.2" /><ellipse cx="540" cy="1296" rx="110" ry="16" fill="#2B4A5E" opacity=".08"/><path d="M512.0,990.0 L510.0,1270.0" fill="none" stroke="#2B4A5E" stroke-width="60.0" stroke-linecap="round" stroke-linejoin="round"/><path d="M512.0,990.0 L510.0,1270.0" fill="none" stroke="#CFE6EA" stroke-width="46.0" stroke-linecap="round" stroke-linejoin="round"/><path d="M568.0,990.0 L570.0,1270.0" fill="none" stroke="#2B4A5E" stroke-width="60.0" stroke-linecap="round" stroke-linejoin="round"/><path d="M568.0,990.0 L570.0,1270.0" fill="none" stroke="#CFE6EA" stroke-width="46.0" stroke-linecap="round" stroke-linejoin="round"/><path d="M482.0,1276.0 h50.0 v18.0 h-54.0 z" fill="#E9F1F3" stroke="#2B4A5E" stroke-width="7" stroke-linejoin="round" /><path d="M548.0,1276.0 h50.0 v18.0 h-46.0 z" fill="#E9F1F3" stroke="#2B4A5E" stroke-width="7" stroke-linejoin="round" /><path d="M472.0,782.8 L468.0,884.4 L460.0,997.2" fill="none" stroke="#2B4A5E" stroke-width="48.0" stroke-linecap="round" stroke-linejoin="round"/><path d="M472.0,782.8 L468.0,884.4 L460.0,997.2" fill="none" stroke="#CFE6EA" stroke-width="34.0" stroke-linecap="round" stroke-linejoin="round"/><path d="M608.0,782.8 L612.0,884.4 L620.0,997.2" fill="none" stroke="#2B4A5E" stroke-width="48.0" stroke-linecap="round" stroke-linejoin="round"/><path d="M608.0,782.8 L612.0,884.4 L620.0,997.2" fill="none" stroke="#CFE6EA" stroke-width="34.0" stroke-linecap="round" stroke-linejoin="round"/><path d="M464.0,770.8 Q540,690.0 616.0,770.8 L604.0,1000.0 L476.0,1000.0 Z" fill="#CFE6EA" stroke="#2B4A5E" stroke-width="7" stroke-linejoin="round" /><path d="M514.0,727.52 L540,784.4 L566.0,727.52" fill="none" stroke="#2B4A5E" stroke-width="5.6000000000000005" stroke-linecap="round"/><path d="M540.0,719.4 L540.0,706.8" fill="none" stroke="#2B4A5E" stroke-width="40.0" stroke-linecap="round" stroke-linejoin="round"/><path d="M540.0,719.4 L540.0,706.8" fill="none" stroke="#F7FBFB" stroke-width="26.0" stroke-linecap="round" stroke-linejoin="round"/><ellipse cx="540.0" cy="670.4" rx="41.4" ry="46.0" transform="rotate(0 540.0 670.4)" fill="#F7FBFB" stroke="#2B4A5E" stroke-width="7"/></g></svg>