<svg xmlns="http://www.w3.org/2000/svg" width="1080" height="1920" viewBox="0 0 1080 1920"><rect width="1080" height="1920" fill="#DCEBEA"/><g transform="translate(-54,-95) scale(1.1)"><defs><linearGradient id="g" x1="0" y1="0" x2="0" y2="1"><stop offset="0" stop-color="#F7FBF9"/><stop offset="1" stop-color="#EAF3F1"/></linearGradient></defs><rect width="1080" height="1920" fill="url(#g)"/><rect y="1300" width="1080" height="1920" fill="#DCEBEA"/><line x1="0" y1="1300" x2="1080" y2="1300" stroke="#2B4A5E" stroke-width="4.2" opacity=".5"/><rect x="130" y="300" width="300" height="400" rx="8" fill="#E2F1F4" stroke="#2B4A5E" stroke-width="7"/><path d="M130,580 q80,-70 150,-10 q70,-60 150,0 v120 h-300 z" fill="#CFE6DD"/><line x1="280.0" y1="300" x2="280.0" y2="700" stroke="#2B4A5E" stroke-width="7"/><line x1="130" y1="480.0" x2="430" y2="480.0" stroke="#2B4A5E" stroke-width="7"/><path d="M900,1180 q-36.0,-54.0 -57.6,-91.8 q32.4,10.8 57.6,91.8 z" fill="#A8D2C6" stroke="#2B4A5E" stroke-width="4.8999999999999995"/><path d="M900,1180 q36.0,-54.0 57.6,-91.8 q-32.4,10.8 -57.6,91.8 z" fill="#A8D2C6" stroke="#2B4A5E" stroke-width="4.8999999999999995"/><path d="M900,1180 q-12.6,-81.0 -20.160000000000004,-137.70000000000002 q11.34,16.2 20.160000000000004,137.70000000000002 z" fill="#A8D2C6" stroke="#2B4A5E" stroke-width="4.8999999999999995"/><path d="M900,1180 q16.2,-75.60000000000001 25.92,-128.51999999999998 q-14.58,15.120000000000001 -25.92,128.51999999999998 z" fill="#A8D2C6" stroke="#2B4A5E" stroke-width="4.8999999999999995"/><path d="M858.6,1180 h82.8 l-10.8,77.4 h-61.2 z" fill="#E3EFF1" stroke="#2B4A5E" stroke-width="7" stroke-linejoin="round" /><ellipse cx="560" cy="1296" rx="110" ry="16" fill="#2B4A5E" opacity=".08"/><path d="M529.76,966.0 L527.6,1268.4" fill="none" stroke="#2B4A5E" stroke-width="63.68000000000001" stroke-linecap="round" stroke-linejoin="round"/><path d="M529.76,966.0 L527.6,1268.4" fill="none" stroke="#CFE6EA" stroke-width="49.68000000000001" stroke-linecap="round" stroke-linejoin="round"/><path d="M590.24,966.0 L592.4,1268.4" fill="none" stroke="#2B4A5E" stroke-width="63.68000000000001" stroke-linecap="round" stroke-linejoin="round"/><path d="M590.24,966.0 L592.4,1268.4" fill="none" stroke="#CFE6EA" stroke-width="49.68000000000001" stroke-linecap="round" stroke-linejoin="round"/><path d="M497.36,1274.88 h54.0 v19.44 h-58.32000000000001 z" fill="#E9F1F3" stroke="#2B4A5E" stroke-width="7" stroke-linejoin="round" /><path d="M568.64,1274.88 h54.0 v19.44 h-49.68000000000001 z" fill="#E9F1F3" stroke="#2B4A5E" stroke-width="7" stroke-linejoin="round" /><path d="M477.91999999999996,698.16 Q560,642.0 642.08,698.16 L629.12,976.8 L490.88,976.8 Z" fill="#CFE6EA" stroke="#2B4A5E" stroke-width="7" stroke-linejoin="round" /><path d="M531.92,670.0799999999999 L560,728.4 L588.08,670.0799999999999" fill="none" stroke="#2B4A5E" stroke-width="5.6000000000000005" stroke-linecap="round"/><path d="M560.0,658.1999999999999 L560.0,646.3199999999999" fill="none" stroke="#2B4A5E" stroke-width="42.08" stroke-linecap="round" stroke-linejoin="round"/><path d="M560.0,658.1999999999999 L560.0,646.3199999999999" fill="none" stroke="#F7FBFB" stroke-width="28.080000000000002" stroke-linecap="round" stroke-linejoin="round"/><ellipse cx="560.0" cy="609.5999999999999" rx="44.71200000000001" ry="49.68000000000001" transform="rotate(0 560.0 609.5999999999999)" fill="#F7FBFB" stroke="#2B4A5E" stroke-width="7"/><path d="M631.28,717.5999999999999 L678.8,836.4 L600,782.4" fill="none" stroke="#2B4A5E" stroke-width="50.72" stroke-linecap="round" stroke-linejoin="round"/><path d="M631.28,717.5999999999999 L678.8,836.4 L600,782.4" fill="none" stroke="#CFE6EA" stroke-width="36.72" stroke-linecap="round" stroke-linejoin="round"/><path d="M488.72,717.5999999999999 L441.2,836.4 L550,782.4" fill="none" stroke="#2B4A5E" stroke-width="50.72" stroke-linecap="round" stroke-linejoin="round"/><path d="M488.72,717.5999999999999 L441.2,836.4 L550,782.4" fill="none" stroke="#CFE6EA" stroke-width="36.72" stroke-linecap="round" stroke-linejoin="round"/><rect x="470" y="685.1999999999999" width="190" height="210" rx="9.5" fill="#FFFFFF" stroke="#2B4A5E" stroke-width="7" /><rect x="489.0" y="706.0999999999999" width="53.199999999999996" height="53.199999999999996" rx="5.699999999999999" fill="#DCEBEA" stroke="#2B4A5E" stroke-width="4.8999999999999995" /><line x1="557.4" y1="719.4" x2="637.2" y2="719.4" stroke="#B5D3DA" stroke-width="8.549999999999999" stroke-linecap="round" /><line x1="557.4" y1="745.9999999999999" x2="603.0" y2="745.9999999999999" stroke="#B5D3DA" stroke-width="8.549999999999999" stroke-linecap="round" /><line x1="490.9" y1="787.8" x2="637.2" y2="787.8" stroke="#B5D3DA" stroke-width="8.549999999999999" stroke-linecap="round" /><line x1="490.9" y1="816.3" x2="608.7" y2="816.3" stroke="#B5D3DA" stroke-width="8.549999999999999" stroke-linecap="round" /><line x1="490.9" y1="844.8" x2="637.2" y2="844.8" stroke="#B5D3DA" stroke-width="8.549999999999999" stroke-linecap="round" /><path d="M690,652.4 Q693.96,670.4399999999999 712,674.4 Q693.96,678.36 690,696.4 Q686.04,678.36 668,674.4 Q686.04,670.4399999999999 690,652.4 Z" fill="#FFFFFF" opacity="1.0" stroke="#2B4A5E" stroke-width="4.2"/></g></svg>