<svg xmlns="http://www.w3.org/2000/svg" width="1080" height="1920" viewBox="0 0 1080 1920"><rect width="1080" height="1920" fill="#DCEBEA"/><g transform="translate(-54,-95) scale(1.1)"><defs><linearGradient id="g" x1="0" y1="0" x2="0" y2="1"><stop offset="0" stop-color="#F2F6F7"/><stop offset="1" stop-color="#E3ECEE"/></linearGradient></defs><rect width="1080" height="1920" fill="url(#g)"/><rect y="1300" width="1080" height="1920" fill="#D6E2E4"/><line x1="0" y1="1300" x2="1080" y2="1300" stroke="#2B4A5E" stroke-width="4.2" opacity=".5"/><rect x="190" y="230" width="700" height="940" rx="18" fill="#F4F7F7" stroke="#2B4A5E" stroke-width="7" /><path d="M260,350 c120,-60 200,120 320,40 s160,-80 240,20 M280,1050 c100,60 180,-90 300,-30 s180,70 230,-10" fill="none" stroke="#B5D3DA" stroke-width="10" stroke-linecap="round"/><path d="M270,690 c60,-120 160,80 220,-30 c40,-80 120,60 180,-20 c50,-60 100,30 140,-10" fill="none" stroke="#B5D3DA" stroke-width="8" stroke-linecap="round"/><path d="M272.40000000000003,630 q0,-93.6 55.199999999999996,-93.6 q55.199999999999996,0 55.199999999999996,93.6 z" fill="#DCEBDF" stroke="#2B4A5E" stroke-width="5.6000000000000005" stroke-linejoin="round" /><circle cx="327.6" cy="500.4" r="36.0" fill="#F7FBFB" stroke="#2B4A5E" stroke-width="5.6000000000000005" /><path d="M397.2,630 q0,-93.6 55.199999999999996,-93.6 q55.199999999999996,0 55.199999999999996,93.6 z" fill="#E6EFF6" stroke="#2B4A5E" stroke-width="5.6000000000000005" stroke-linejoin="round" /><circle cx="452.4" cy="500.4" r="36.0" fill="#F7FBFB" stroke="#2B4A5E" stroke-width="5.6000000000000005" /><path d="M373.2,450.0 l16.8,21.599999999999998 l-14.399999999999999,19.2 l16.8,21.599999999999998 l-14.399999999999999,19.2" fill="none" stroke="#E9A28F" stroke-width="7" stroke-linecap="round"/><circle cx="690" cy="830" r="110" fill="#FFFFFF" stroke="#2B4A5E" stroke-width="7" /><line x1="775.8" y1="830.0" x2="789.0" y2="830.0" stroke="#2B4A5E" stroke-width="4.2" stroke-linecap="round" /><line x1="690.0" y1="915.8" x2="690.0" y2="929.0" stroke="#2B4A5E" stroke-width="4.2" stroke-linecap="round" /><line x1="604.2" y1="830.0" x2="591.0" y2="830.0" stroke="#2B4A5E" stroke-width="4.2" stroke-linecap="round" /><line x1="690.0" y1="744.2" x2="690.0" y2="731.0" stroke="#2B4A5E" stroke-width="4.2" stroke-linecap="round" /><line x1="690" y1="830" x2="690" y2="764.0" stroke="#2B4A5E" stroke-width="7" stroke-linecap="round" /><line x1="690" y1="830" x2="739.5" y2="841.0" stroke="#2B4A5E" stroke-width="7" stroke-linecap="round" /><circle cx="690" cy="830" r="4.8999999999999995" fill="#2B4A5E" stroke="#2B4A5E" stroke-width="0" /><path d="M800,700 q30,40 0,80" fill="none" stroke="#E9A28F" stroke-width="7" stroke-linecap="round"/><path d="M890,1040 l-130,130 h110 q20,0 20,-20 z" fill="#E3ECEE" stroke="#2B4A5E" stroke-width="7" stroke-linejoin="round" /></g></svg>