<svg xmlns="http://www.w3.org/2000/svg" width="1080" height="1920" viewBox="0 0 1080 1920"><rect width="1080" height="1920" fill="#DCEBEA"/><g transform="translate(-54,-95) scale(1.1)"><defs><linearGradient id="g" x1="0" y1="0" x2="0" y2="1"><stop offset="0" stop-color="#F7FBF9"/><stop offset="1" stop-color="#EAF3F1"/></linearGradient></defs><rect width="1080" height="1920" fill="url(#g)"/><rect y="1300" width="1080" height="1920" fill="#DCEBEA"/><line x1="0" y1="1300" x2="1080" y2="1300" stroke="#2B4A5E" stroke-width="4.2" opacity=".5"/><rect x="640" y="260" width="320" height="400" rx="8" fill="#E8F5F8" stroke="#2B4A5E" stroke-width="7"/><line x1="859.4" y1="400.0" x2="874.8" y2="400.0" stroke="#2B4A5E" stroke-width="7" stroke-linecap="round" /><line x1="842.0021428024809" y1="442.00214280248093" x2="852.8915872327537" y2="452.89158723275375" stroke="#2B4A5E" stroke-width="7" stroke-linecap="round" /><line x1="800.0" y1="459.4" x2="800.0" y2="474.8" stroke="#2B4A5E" stroke-width="7" stroke-linecap="round" /><line x1="757.9978571975191" y1="442.00214280248093" x2="747.1084127672463" y2="452.89158723275375" stroke="#2B4A5E" stroke-width="7" stroke-linecap="round" /><line x1="740.6" y1="400.0" x2="725.2" y2="400.0" stroke="#2B4A5E" stroke-width="7" stroke-linecap="round" /><line x1="757.9978571975191" y1="357.99785719751907" x2="747.1084127672463" y2="347.10841276724625" stroke="#2B4A5E" stroke-width="7" stroke-linecap="round" /><line x1="800.0" y1="340.6" x2="800.0" y2="325.2" stroke="#2B4A5E" stroke-width="7" stroke-linecap="round" /><line x1="842.0021428024809" y1="357.99785719751907" x2="852.8915872327537" y2="347.10841276724625" stroke="#2B4A5E" stroke-width="7" stroke-linecap="round" /><circle cx="800" cy="400" r="44" fill="#F6E7B0" stroke="#2B4A5E" stroke-width="7" /><line x1="800.0" y1="260" x2="800.0" y2="660" stroke="#2B4A5E" stroke-width="7"/><line x1="640" y1="440.0" x2="960" y2="440.0" stroke="#2B4A5E" stroke-width="7"/><path d="M170,1180 q-36.0,-54.0 -57.6,-91.8 q32.4,10.8 57.6,91.8 z" fill="#A8D2C6" stroke="#2B4A5E" stroke-width="4.8999999999999995"/><path d="M170,1180 q36.0,-54.0 57.6,-91.8 q-32.4,10.8 -57.6,91.8 z" fill="#A8D2C6" stroke="#2B4A5E" stroke-width="4.8999999999999995"/><path d="M170,1180 q-12.6,-81.0 -20.160000000000004,-137.70000000000002 q11.34,16.2 20.160000000000004,137.70000000000002 z" fill="#A8D2C6" stroke="#2B4A5E" stroke-width="4.8999999999999995"/><path d="M170,1180 q16.2,-75.60000000000001 25.92,-128.51999999999998 q-14.58,15.120000000000001 -25.92,128.51999999999998 z" fill="#A8D2C6" stroke="#2B4A5E" stroke-width="4.8999999999999995"/><path d="M128.6,1180 h82.8 l-10.8,77.4 h-61.2 z" fill="#E3EFF1" stroke="#2B4A5E" stroke-width="7" stroke-linejoin="round" /><ellipse cx="470" cy="1296" rx="110" ry="16" fill="#2B4A5E" opacity=".08"/><path d="M439.76,966.0 L437.6,1268.4" fill="none" stroke="#2B4A5E" stroke-width="63.68000000000001" stroke-linecap="round" stroke-linejoin="round"/><path d="M439.76,966.0 L437.6,1268.4" fill="none" stroke="#CFE6EA" stroke-width="49.68000000000001" stroke-linecap="round" stroke-linejoin="round"/><path d="M500.24,966.0 L502.4,1268.4" fill="none" stroke="#2B4A5E" stroke-width="63.68000000000001" stroke-linecap="round" stroke-linejoin="round"/><path d="M500.24,966.0 L502.4,1268.4" fill="none" stroke="#CFE6EA" stroke-width="49.68000000000001" stroke-linecap="round" stroke-linejoin="round"/><path d="M407.36,1274.88 h54.0 v19.44 h-58.32000000000001 z" fill="#E9F1F3" stroke="#2B4A5E" stroke-width="7" stroke-linejoin="round" /><path d="M478.64,1274.88 h54.0 v19.44 h-49.68000000000001 z" fill="#E9F1F3" stroke="#2B4A5E" stroke-width="7" stroke-linejoin="round" /><path d="M387.91999999999996,698.16 Q470,642.0 552.08,698.16 L539.12,976.8 L400.88,976.8 Z" fill="#CFE6EA" stroke="#2B4A5E" stroke-width="7" stroke-linejoin="round" /><path d="M441.92,670.0799999999999 L470,728.4 L498.08,670.0799999999999" fill="none" stroke="#2B4A5E" stroke-width="5.6000000000000005" stroke-linecap="round"/><path d="M470.0,658.1999999999999 L470.0,639.408" fill="none" stroke="#2B4A5E" stroke-width="42.08" stroke-linecap="round" stroke-linejoin="round"/><path d="M470.0,658.1999999999999 L470.0,639.408" fill="none" stroke="#F7FBFB" stroke-width="28.080000000000002" stroke-linecap="round" stroke-linejoin="round"/><ellipse cx="470.0" cy="592.3199999999999" rx="44.71200000000001" ry="49.68000000000001" transform="rotate(0 470.0 592.3199999999999)" fill="#F7FBFB" stroke="#2B4A5E" stroke-width="7"/><path d="M541.28,717.5999999999999 L588.8,836.4 L510,782.4" fill="none" stroke="#2B4A5E" stroke-width="50.72" stroke-linecap="round" stroke-linejoin="round"/><path d="M541.28,717.5999999999999 L588.8,836.4 L510,782.4" fill="none" stroke="#CFE6EA" stroke-width="36.72" stroke-linecap="round" stroke-linejoin="round"/><path d="M398.72,717.5999999999999 L351.2,836.4 L460,782.4" fill="none" stroke="#2B4A5E" stroke-width="50.72" stroke-linecap="round" stroke-linejoin="round"/><path d="M398.72,717.5999999999999 L351.2,836.4 L460,782.4" fill="none" stroke="#CFE6EA" stroke-width="36.72" stroke-linecap="round" stroke-linejoin="round"/><rect x="380" y="685.1999999999999" width="190" height="210" rx="9.5" fill="#FFFFFF" stroke="#2B4A5E" stroke-width="7" /><rect x="399.0" y="706.0999999999999" width="53.199999999999996" height="53.199999999999996" rx="5.699999999999999" fill="#DCEBEA" stroke="#2B4A5E" stroke-width="4.8999999999999995" /><line x1="467.4" y1="719.4" x2="547.2" y2="719.4" stroke="#B5D3DA" stroke-width="8.549999999999999" stroke-linecap="round" /><line x1="467.4" y1="745.9999999999999" x2="513.0" y2="745.9999999999999" stroke="#B5D3DA" stroke-width="8.549999999999999" stroke-linecap="round" /><line x1="400.9" y1="787.8" x2="547.2" y2="787.8" stroke="#B5D3DA" stroke-width="8.549999999999999" stroke-linecap="round" /><line x1="400.9" y1="816.3" x2="518.7" y2="816.3" stroke="#B5D3DA" stroke-width="8.549999999999999" stroke-linecap="round" /><line x1="400.9" y1="844.8" x2="547.2" y2="844.8" stroke="#B5D3DA" stroke-width="8.549999999999999" stroke-linecap="round" /><line x1="557.0" y1="735.1999999999999" x2="564.0" y2="735.1999999999999" stroke="#2B4A5E" stroke-width="4.8999999999999995" stroke-linecap="round" /><line x1="549.0918830920368" y1="754.2918830920368" x2="554.0416305603426" y2="759.2416305603425" stroke="#2B4A5E" stroke-width="4.8999999999999995" stroke-linecap="round" /><line x1="530.0" y1="762.1999999999999" x2="530.0" y2="769.1999999999999" stroke="#2B4A5E" stroke-width="4.8999999999999995" stroke-linecap="round" /><line x1="510.90811690796323" y1="754.2918830920368" x2="505.95836943965736" y2="759.2416305603425" stroke="#2B4A5E" stroke-width="4.8999999999999995" stroke-linecap="round" /><line x1="503.0" y1="735.1999999999999" x2="496.0" y2="735.1999999999999" stroke="#2B4A5E" stroke-width="4.8999999999999995" stroke-linecap="round" /><line x1="510.90811690796323" y1="716.1081169079631" x2="505.95836943965736" y2="711.1583694396573" stroke="#2B4A5E" stroke-width="4.8999999999999995" stroke-linecap="round" /><line x1="530.0" y1="708.1999999999999" x2="530.0" y2="701.1999999999999" stroke="#2B4A5E" stroke-width="4.8999999999999995" stroke-linecap="round" /><line x1="549.0918830920368" y1="716.1081169079631" x2="554.0416305603426" y2="711.1583694396573" stroke="#2B4A5E" stroke-width="4.8999999999999995" stroke-linecap="round" /><circle cx="530" cy="735.1999999999999" r="20" fill="#F6E7B0" stroke="#2B4A5E" stroke-width="4.8999999999999995" /></g></svg>