<svg xmlns="http://www.w3.org/2000/svg" width="1080" height="1920" viewBox="0 0 1080 1920"><rect width="1080" height="1920" fill="#DCEBEA"/><g transform="translate(-54,-95) scale(1.1)"><defs><linearGradient id="g" x1="0" y1="0" x2="0" y2="1"><stop offset="0" stop-color="#F6FBFB"/><stop offset="1" stop-color="#E6F2F1"/></linearGradient></defs><rect width="1080" height="1920" fill="url(#g)"/><rect y="1300" width="1080" height="1920" fill="#DCEBEA"/><line x1="0" y1="1300" x2="1080" y2="1300" stroke="#2B4A5E" stroke-width="4.2" opacity=".5"/><rect x="130" y="300" width="300" height="460" rx="8" fill="#E2F1F4" stroke="#2B4A5E" stroke-width="7"/><path d="M130,640 q80,-70 150,-10 q70,-60 150,0 v120 h-300 z" fill="#CFE6DD"/><line x1="280.0" y1="300" x2="280.0" y2="760" stroke="#2B4A5E" stroke-width="7"/><line x1="130" y1="507.0" x2="430" y2="507.0" stroke="#2B4A5E" stroke-width="7"/><path d="M100,280 q30,260 0,520 h40 q20,-260 0,-520 z" fill="#FFFFFF" stroke="#2B4A5E" stroke-width="5.6000000000000005"/><path d="M900,1180 q-40.0,-60.0 -64.0,-102.0 q36.0,12.0 64.0,102.0 z" fill="#A8D2C6" stroke="#2B4A5E" stroke-width="4.8999999999999995"/><path d="M900,1180 q40.0,-60.0 64.0,-102.0 q-36.0,12.0 -64.0,102.0 z" fill="#A8D2C6" stroke="#2B4A5E" stroke-width="4.8999999999999995"/><path d="M900,1180 q-14.0,-90.0 -22.400000000000002,-153.0 q12.6,18.0 22.400000000000002,153.0 z" fill="#A8D2C6" stroke="#2B4A5E" stroke-width="4.8999999999999995"/><path d="M900,1180 q18.0,-84.0 28.8,-142.79999999999998 q-16.2,16.8 -28.8,142.79999999999998 z" fill="#A8D2C6" stroke="#2B4A5E" stroke-width="4.8999999999999995"/><path d="M854.0,1180 h92.0 l-12.0,86.0 h-68.0 z" fill="#E3EFF1" stroke="#2B4A5E" stroke-width="7" stroke-linejoin="round" /><rect x="800" y="430" width="160" height="200" rx="8" fill="#FFFFFF" stroke="#2B4A5E" stroke-width="7"/><path d="M820,600 l40,-60 l30,40 l20,-24 l30,44 z" fill="#CFE6DD"/><ellipse cx="560" cy="1296" rx="120" ry="16" fill="#2B4A5E" opacity=".08"/><path d="M528.64,954.0 L526.4,1267.6" fill="none" stroke="#2B4A5E" stroke-width="65.52000000000001" stroke-linecap="round" stroke-linejoin="round"/><path d="M528.64,954.0 L526.4,1267.6" fill="none" stroke="#D4E4E6" stroke-width="51.52" stroke-linecap="round" stroke-linejoin="round"/><path d="M591.36,954.0 L593.6,1267.6" fill="none" stroke="#2B4A5E" stroke-width="65.52000000000001" stroke-linecap="round" stroke-linejoin="round"/><path d="M591.36,954.0 L593.6,1267.6" fill="none" stroke="#D4E4E6" stroke-width="51.52" stroke-linecap="round" stroke-linejoin="round"/><path d="M495.03999999999996,1274.32 h56.00000000000001 v20.160000000000004 h-60.480000000000004 z" fill="#E9F1F3" stroke="#2B4A5E" stroke-width="7" stroke-linejoin="round" /><path d="M568.96,1274.32 h56.00000000000001 v20.160000000000004 h-51.52 z" fill="#E9F1F3" stroke="#2B4A5E" stroke-width="7" stroke-linejoin="round" /><path d="M483.84,713.872 L477.12,831.6959999999999 L470.4,960.048" fill="none" stroke="#2B4A5E" stroke-width="52.080000000000005" stroke-linecap="round" stroke-linejoin="round"/><path d="M483.84,713.872 L477.12,831.6959999999999 L470.4,960.048" fill="none" stroke="#F3F8F8" stroke-width="38.080000000000005" stroke-linecap="round" stroke-linejoin="round"/><path d="M636.16,713.872 L642.88,831.6959999999999 L649.6,960.048" fill="none" stroke="#2B4A5E" stroke-width="52.080000000000005" stroke-linecap="round" stroke-linejoin="round"/><path d="M636.16,713.872 L642.88,831.6959999999999 L649.6,960.048" fill="none" stroke="#F3F8F8" stroke-width="38.080000000000005" stroke-linecap="round" stroke-linejoin="round"/><path d="M474.88,700.432 Q560,617.9999999999999 645.12,700.432 L631.6800000000001,965.2 L488.32,965.2 Z" fill="#F3F8F8" stroke="#2B4A5E" stroke-width="7" stroke-linejoin="round" /><path d="M530.88,656.7968 L560,719.6959999999999 L589.12,656.7968" fill="none" stroke="#2B4A5E" stroke-width="5.6000000000000005" stroke-linecap="round"/><path d="M560.0,646.8959999999998 L560.0,632.7839999999999" fill="none" stroke="#2B4A5E" stroke-width="43.120000000000005" stroke-linecap="round" stroke-linejoin="round"/><path d="M560.0,646.8959999999998 L560.0,632.7839999999999" fill="none" stroke="#F7FBFB" stroke-width="29.120000000000005" stroke-linecap="round" stroke-linejoin="round"/><ellipse cx="560.0" cy="592.0159999999998" rx="46.368" ry="51.52" transform="rotate(0 560.0 592.0159999999998)" fill="#F7FBFB" stroke="#2B4A5E" stroke-width="7"/><defs><radialGradient id="bglow"><stop offset="0" stop-color="#9FD6CF" stop-opacity=".55"/><stop offset="1" stop-color="#9FD6CF" stop-opacity="0"/></radialGradient></defs><circle cx="560" cy="760" r="120" fill="url(#bglow)"/><rect x="508" y="734" width="96" height="52" rx="9" fill="none" stroke="#2A7F8C" stroke-width="7" opacity=".75"/><rect x="606" y="749" width="10" height="22" rx="3" fill="#2A7F8C" opacity=".75"/><rect x="518" y="744" width="18" height="32" rx="4" fill="#E9A28F" opacity=".85"/></g></svg>