<svg xmlns="http://www.w3.org/2000/svg" width="1080" height="1920" viewBox="0 0 1080 1920"><rect width="1080" height="1920" fill="#DCEBEA"/><g transform="translate(-54,-95) scale(1.1)"><defs><linearGradient id="g" x1="0" y1="0" x2="0" y2="1"><stop offset="0" stop-color="#F6FBFB"/><stop offset="1" stop-color="#E6F2F1"/></linearGradient></defs><rect width="1080" height="1920" fill="url(#g)"/><rect y="1300" width="1080" height="1920" fill="#DCEBEA"/><line x1="0" y1="1300" x2="1080" y2="1300" stroke="#2B4A5E" stroke-width="4.2" opacity=".5"/><line x1="540" y1="300" x2="540" y2="1260" stroke="#B5D3DA" stroke-width="4" stroke-linecap="round" stroke-dasharray="10 16"/><g transform="rotate(-18 145.0 455.0)"><rect x="80" y="380" width="130" height="150" rx="6.5" fill="#FFFFFF" stroke="#2B4A5E" stroke-width="4.2" /><rect x="93.0" y="394.3" width="36.4" height="36.4" rx="3.9000000000000004" fill="#DCEBEA" stroke="#2B4A5E" stroke-width="2.94" /><line x1="139.8" y1="403.4" x2="194.4" y2="403.4" stroke="#B5D3DA" stroke-width="5.8500000000000005" stroke-linecap="round" /><line x1="139.8" y1="421.6" x2="171.0" y2="421.6" stroke="#B5D3DA" stroke-width="5.8500000000000005" stroke-linecap="round" /><line x1="94.3" y1="450.2" x2="194.4" y2="450.2" stroke="#B5D3DA" stroke-width="5.8500000000000005" stroke-linecap="round" /><line x1="94.3" y1="469.7" x2="174.9" y2="469.7" stroke="#B5D3DA" stroke-width="5.8500000000000005" stroke-linecap="round" /><line x1="94.3" y1="489.2" x2="194.4" y2="489.2" stroke="#B5D3DA" stroke-width="5.8500000000000005" stroke-linecap="round" /></g><g transform="rotate(12 355.0 375.0)"><rect x="290" y="300" width="130" height="150" rx="6.5" fill="#FFFFFF" stroke="#2B4A5E" stroke-width="4.2" /><rect x="303.0" y="314.3" width="36.4" height="36.4" rx="3.9000000000000004" fill="#DCEBEA" stroke="#2B4A5E" stroke-width="2.94" /><line x1="349.8" y1="323.4" x2="404.4" y2="323.4" stroke="#B5D3DA" stroke-width="5.8500000000000005" stroke-linecap="round" /><line x1="349.8" y1="341.6" x2="381.0" y2="341.6" stroke="#B5D3DA" stroke-width="5.8500000000000005" stroke-linecap="round" /><line x1="304.3" y1="370.2" x2="404.4" y2="370.2" stroke="#B5D3DA" stroke-width="5.8500000000000005" stroke-linecap="round" /><line x1="304.3" y1="389.7" x2="384.9" y2="389.7" stroke="#B5D3DA" stroke-width="5.8500000000000005" stroke-linecap="round" /><line x1="304.3" y1="409.2" x2="404.4" y2="409.2" stroke="#B5D3DA" stroke-width="5.8500000000000005" stroke-linecap="round" /></g><g transform="rotate(10 125.0 715.0)"><rect x="60" y="640" width="130" height="150" rx="6.5" fill="#FFFFFF" stroke="#2B4A5E" stroke-width="4.2" /><rect x="73.0" y="654.3" width="36.4" height="36.4" rx="3.9000000000000004" fill="#DCEBEA" stroke="#2B4A5E" stroke-width="2.94" /><line x1="119.80000000000001" y1="663.4" x2="174.4" y2="663.4" stroke="#B5D3DA" stroke-width="5.8500000000000005" stroke-linecap="round" /><line x1="119.80000000000001" y1="681.6" x2="151.0" y2="681.6" stroke="#B5D3DA" stroke-width="5.8500000000000005" stroke-linecap="round" /><line x1="74.3" y1="710.2" x2="174.4" y2="710.2" stroke="#B5D3DA" stroke-width="5.8500000000000005" stroke-linecap="round" /><line x1="74.3" y1="729.7" x2="154.9" y2="729.7" stroke="#B5D3DA" stroke-width="5.8500000000000005" stroke-linecap="round" /><line x1="74.3" y1="749.2" x2="174.4" y2="749.2" stroke="#B5D3DA" stroke-width="5.8500000000000005" stroke-linecap="round" /></g><g transform="rotate(-8 405.0 635.0)"><rect x="340" y="560" width="130" height="150" rx="6.5" fill="#FFFFFF" stroke="#2B4A5E" stroke-width="4.2" /><rect x="353.0" y="574.3" width="36.4" height="36.4" rx="3.9000000000000004" fill="#DCEBEA" stroke="#2B4A5E" stroke-width="2.94" /><line x1="399.8" y1="583.4" x2="454.4" y2="583.4" stroke="#B5D3DA" stroke-width="5.8500000000000005" stroke-linecap="round" /><line x1="399.8" y1="601.6" x2="431.0" y2="601.6" stroke="#B5D3DA" stroke-width="5.8500000000000005" stroke-linecap="round" /><line x1="354.3" y1="630.2" x2="454.4" y2="630.2" stroke="#B5D3DA" stroke-width="5.8500000000000005" stroke-linecap="round" /><line x1="354.3" y1="649.7" x2="434.9" y2="649.7" stroke="#B5D3DA" stroke-width="5.8500000000000005" stroke-linecap="round" /><line x1="354.3" y1="669.2" x2="454.4" y2="669.2" stroke="#B5D3DA" stroke-width="5.8500000000000005" stroke-linecap="round" /></g><g transform="rotate(22 245.0 545.0)"><rect x="180" y="470" width="130" height="150" rx="6.5" fill="#FFFFFF" stroke="#2B4A5E" stroke-width="4.2" /><rect x="193.0" y="484.3" width="36.4" height="36.4" rx="3.9000000000000004" fill="#DCEBEA" stroke="#2B4A5E" stroke-width="2.94" /><line x1="239.8" y1="493.4" x2="294.4" y2="493.4" stroke="#B5D3DA" stroke-width="5.8500000000000005" stroke-linecap="round" /><line x1="239.8" y1="511.6" x2="271.0" y2="511.6" stroke="#B5D3DA" stroke-width="5.8500000000000005" stroke-linecap="round" /><line x1="194.3" y1="540.2" x2="294.4" y2="540.2" stroke="#B5D3DA" stroke-width="5.8500000000000005" stroke-linecap="round" /><line x1="194.3" y1="559.7" x2="274.9" y2="559.7" stroke="#B5D3DA" stroke-width="5.8500000000000005" stroke-linecap="round" /><line x1="194.3" y1="579.2" x2="294.4" y2="579.2" stroke="#B5D3DA" stroke-width="5.8500000000000005" stroke-linecap="round" /></g><ellipse cx="270" cy="1296" rx="100" ry="16" fill="#2B4A5E" opacity=".08"/><path d="M244.24,1014.0 L242.4,1271.6" fill="none" stroke="#2B4A5E" stroke-width="56.32" stroke-linecap="round" stroke-linejoin="round"/><path d="M244.24,1014.0 L242.4,1271.6" fill="none" stroke="#CFE6EA" stroke-width="42.32" stroke-linecap="round" stroke-linejoin="round"/><path d="M295.76,1014.0 L297.6,1271.6" fill="none" stroke="#2B4A5E" stroke-width="56.32" stroke-linecap="round" stroke-linejoin="round"/><path d="M295.76,1014.0 L297.6,1271.6" fill="none" stroke="#CFE6EA" stroke-width="42.32" stroke-linecap="round" stroke-linejoin="round"/><path d="M216.64,1277.12 h46.0 v16.560000000000002 h-49.68 z" fill="#E9F1F3" stroke="#2B4A5E" stroke-width="7" stroke-linejoin="round" /><path d="M277.36,1277.12 h46.0 v16.560000000000002 h-42.32 z" fill="#E9F1F3" stroke="#2B4A5E" stroke-width="7" stroke-linejoin="round" /><path d="M207.44,826.6879999999999 L204.68,918.5039999999999 L196.39999999999998,1021.452" fill="none" stroke="#2B4A5E" stroke-width="45.28" stroke-linecap="round" stroke-linejoin="round"/><path d="M207.44,826.6879999999999 L204.68,918.5039999999999 L196.39999999999998,1021.452" fill="none" stroke="#CFE6EA" stroke-width="31.28" stroke-linecap="round" stroke-linejoin="round"/><path d="M332.56,826.6879999999999 L335.32,918.5039999999999 L343.6,1021.452" fill="none" stroke="#2B4A5E" stroke-width="45.28" stroke-linecap="round" stroke-linejoin="round"/><path d="M332.56,826.6879999999999 L335.32,918.5039999999999 L343.6,1021.452" fill="none" stroke="#CFE6EA" stroke-width="31.28" stroke-linecap="round" stroke-linejoin="round"/><path d="M200.07999999999998,815.6479999999999 Q270,738.0 339.92,815.6479999999999 L328.88,1023.2 L211.12,1023.2 Z" fill="#CFE6EA" stroke="#2B4A5E" stroke-width="7" stroke-linejoin="round" /><path d="M246.07999999999998,773.8432 L270,826.5039999999999 L293.92,773.8432" fill="none" stroke="#2B4A5E" stroke-width="5.6000000000000005" stroke-linecap="round"/><path d="M270.0,766.7040000000001 L270.0,761.736" fill="none" stroke="#2B4A5E" stroke-width="37.92" stroke-linecap="round" stroke-linejoin="round"/><path d="M270.0,766.7040000000001 L270.0,761.736" fill="none" stroke="#F7FBFB" stroke-width="23.92" stroke-linecap="round" stroke-linejoin="round"/><ellipse cx="270.0" cy="738.184" rx="38.088" ry="42.32" transform="rotate(-16 270.0 738.184)" fill="#F7FBFB" stroke="#2B4A5E" stroke-width="7"/><ellipse cx="800" cy="1296" rx="100" ry="16" fill="#2B4A5E" opacity=".08"/><path d="M773.4,1005.0 L771.5,1271.0" fill="none" stroke="#2B4A5E" stroke-width="57.699999999999996" stroke-linecap="round" stroke-linejoin="round"/><path d="M773.4,1005.0 L771.5,1271.0" fill="none" stroke="#CFE6EA" stroke-width="43.699999999999996" stroke-linecap="round" stroke-linejoin="round"/><path d="M826.6,1005.0 L828.5,1271.0" fill="none" stroke="#2B4A5E" stroke-width="57.699999999999996" stroke-linecap="round" stroke-linejoin="round"/><path d="M826.6,1005.0 L828.5,1271.0" fill="none" stroke="#CFE6EA" stroke-width="43.699999999999996" stroke-linecap="round" stroke-linejoin="round"/><path d="M744.9,1276.7 h47.5 v17.099999999999998 h-51.3 z" fill="#E9F1F3" stroke="#2B4A5E" stroke-width="7" stroke-linejoin="round" /><path d="M807.6,1276.7 h47.5 v17.099999999999998 h-43.699999999999996 z" fill="#E9F1F3" stroke="#2B4A5E" stroke-width="7" stroke-linejoin="round" /><path d="M727.8,769.4 Q800,720.0 872.2,769.4 L860.8,1014.5 L739.2,1014.5 Z" fill="#DCEBDF" stroke="#2B4A5E" stroke-width="7" stroke-linejoin="round" /><path d="M775.3,744.7 L800,796.0 L824.7,744.7" fill="none" stroke="#2B4A5E" stroke-width="5.6000000000000005" stroke-linecap="round"/><path d="M800.0,734.25 L800.0,720.0" fill="none" stroke="#2B4A5E" stroke-width="38.7" stroke-linecap="round" stroke-linejoin="round"/><path d="M800.0,734.25 L800.0,720.0" fill="none" stroke="#F7FBFB" stroke-width="24.7" stroke-linecap="round" stroke-linejoin="round"/><ellipse cx="800.0" cy="682.0" rx="39.33" ry="43.699999999999996" transform="rotate(0 800.0 682.0)" fill="#F7FBFB" stroke="#2B4A5E" stroke-width="7"/><path d="M862.7,786.5 L904.5,891.0 L810,881.5" fill="none" stroke="#2B4A5E" stroke-width="46.3" stroke-linecap="round" stroke-linejoin="round"/><path d="M862.7,786.5 L904.5,891.0 L810,881.5" fill="none" stroke="#DCEBDF" stroke-width="32.3" stroke-linecap="round" stroke-linejoin="round"/><path d="M737.3,786.5 L695.5,891.0 L770,881.5" fill="none" stroke="#2B4A5E" stroke-width="46.3" stroke-linecap="round" stroke-linejoin="round"/><path d="M737.3,786.5 L695.5,891.0 L770,881.5" fill="none" stroke="#DCEBDF" stroke-width="32.3" stroke-linecap="round" stroke-linejoin="round"/><rect x="730" y="758.0" width="140" height="180" rx="8" fill="#FFFFFF" stroke="#2B4A5E" stroke-width="7" /><rect x="776" y="744.0" width="48" height="22" rx="5" fill="#DCEBEA" stroke="#2B4A5E" stroke-width="4.8999999999999995" /><path d="M752.8,808.0 l8.0,9.600000000000001 l16.0,-19.200000000000003" fill="none" stroke="#2A7F8C" stroke-width="5.6000000000000005" stroke-linecap="round" stroke-linejoin="round"/><line x1="790" y1="808.0" x2="848" y2="808.0" stroke="#B5D3DA" stroke-width="7" stroke-linecap="round" /><path d="M752.8,852.0 l8.0,9.600000000000001 l16.0,-19.200000000000003" fill="none" stroke="#2A7F8C" stroke-width="5.6000000000000005" stroke-linecap="round" stroke-linejoin="round"/><line x1="790" y1="852.0" x2="848" y2="852.0" stroke="#B5D3DA" stroke-width="7" stroke-linecap="round" /><path d="M752.8,896.0 l8.0,9.600000000000001 l16.0,-19.200000000000003" fill="none" stroke="#2A7F8C" stroke-width="5.6000000000000005" stroke-linecap="round" stroke-linejoin="round"/><line x1="790" y1="896.0" x2="848" y2="896.0" stroke="#B5D3DA" stroke-width="7" stroke-linecap="round" /></g></svg>