<svg xmlns="http://www.w3.org/2000/svg" width="1920" height="1080" viewBox="0 0 1920 1080"><defs><linearGradient id="g" x1="0" y1="0" x2="0" y2="1"><stop offset="0" stop-color="#8DA6B2"/><stop offset="1" stop-color="#7B95A1"/></linearGradient><radialGradient id="glow"><stop offset="0" stop-color="#FFFFFF" stop-opacity=".85"/><stop offset="1" stop-color="#FFFFFF" stop-opacity="0"/></radialGradient></defs><rect width="1920" height="1080" fill="url(#g)"/><rect y="830" width="1920" height="250" fill="#6F8995"/><line x1="0" y1="830" x2="1920" y2="830" stroke="#2B4A5E" stroke-width="4" opacity=".4"/><rect x="200" y="250" width="220" height="440" rx="6" fill="#86A0AC" stroke="#2B4A5E" stroke-width="7"/><ellipse cx="310" cy="60" rx="90" ry="18" fill="#F3F8E8" opacity=".55"/><rect x="620" y="250" width="220" height="440" rx="6" fill="#86A0AC" stroke="#2B4A5E" stroke-width="7"/><ellipse cx="730" cy="60" rx="90" ry="18" fill="#F3F8E8" opacity=".55"/><rect x="1040" y="250" width="220" height="440" rx="6" fill="#86A0AC" stroke="#2B4A5E" stroke-width="7"/><ellipse cx="1150" cy="60" rx="90" ry="18" fill="#F3F8E8" opacity=".55"/><rect x="1460" y="250" width="220" height="440" rx="6" fill="#86A0AC" stroke="#2B4A5E" stroke-width="7"/><ellipse cx="1570" cy="60" rx="90" ry="18" fill="#F3F8E8" opacity=".55"/><ellipse cx="1180" cy="60" rx="110" ry="22" fill="#FFFFF0" opacity=".9"/><path d="M1080,70 L940,830 H1420 L1280,70 Z" fill="#FFFFFF" opacity=".12"/><path d="M1230,640 h220 v20 h-220 z" fill="#DDE7EA" stroke="#2B4A5E" stroke-width="7" stroke-linejoin="round" /><path d="M1250,660 L1250,800" fill="none" stroke="#2B4A5E" stroke-width="24" stroke-linecap="round" stroke-linejoin="round"/><path d="M1250,660 L1250,800" fill="none" stroke="#DDE7EA" stroke-width="10" stroke-linecap="round" stroke-linejoin="round"/><path d="M1430,660 L1430,800" fill="none" stroke="#2B4A5E" stroke-width="24" stroke-linecap="round" stroke-linejoin="round"/><path d="M1430,660 L1430,800" fill="none" stroke="#DDE7EA" stroke-width="10" stroke-linecap="round" stroke-linejoin="round"/><rect x="1260" y="590" width="80" height="50" rx="4" fill="#F4F8F8" stroke="#2B4A5E" stroke-width="5"/><ellipse cx="1160" cy="834" rx="70" ry="14" fill="#2B4A5E" opacity=".08"/><path d="M1142.64,644.0 L1141.4,817.6" fill="none" stroke="#2B4A5E" stroke-width="42.519999999999996" stroke-linecap="round" stroke-linejoin="round"/><path d="M1142.64,644.0 L1141.4,817.6" fill="none" stroke="#CFE6EA" stroke-width="28.52" stroke-linecap="round" stroke-linejoin="round"/><path d="M1177.36,644.0 L1178.6,817.6" fill="none" stroke="#2B4A5E" stroke-width="42.519999999999996" stroke-linecap="round" stroke-linejoin="round"/><path d="M1177.36,644.0 L1178.6,817.6" fill="none" stroke="#CFE6EA" stroke-width="28.52" stroke-linecap="round" stroke-linejoin="round"/><path d="M1124.04,821.32 h31.0 v11.16 h-33.48 z" fill="#E9F1F3" stroke="#2B4A5E" stroke-width="7" stroke-linejoin="round" /><path d="M1164.96,821.32 h31.0 v11.16 h-28.52 z" fill="#E9F1F3" stroke="#2B4A5E" stroke-width="7" stroke-linejoin="round" /><path d="M1112.88,503.632 Q1160,458.0 1207.12,503.632 L1199.68,650.2 L1120.32,650.2 Z" fill="#CFE6EA" stroke="#2B4A5E" stroke-width="7" stroke-linejoin="round" /><path d="M1143.88,479.47679999999997 L1160,514.296 L1176.12,479.47679999999997" fill="none" stroke="#2B4A5E" stroke-width="5.6000000000000005" stroke-linecap="round"/><path d="M1160.0,473.996 L1160.0,469.65599999999995" fill="none" stroke="#2B4A5E" stroke-width="30.12" stroke-linecap="round" stroke-linejoin="round"/><path d="M1160.0,473.996 L1160.0,469.65599999999995" fill="none" stroke="#F7FBFB" stroke-width="16.12" stroke-linecap="round" stroke-linejoin="round"/><ellipse cx="1160.0" cy="452.296" rx="25.668" ry="28.52" transform="rotate(0 1160.0 452.296)" fill="#F7FBFB" stroke="#2B4A5E" stroke-width="7"/><path d="M1202.16,501.4 L1246.8,569.6 L1284.0,606.8" fill="none" stroke="#2B4A5E" stroke-width="35.08" stroke-linecap="round" stroke-linejoin="round"/><path d="M1202.16,501.4 L1246.8,569.6 L1284.0,606.8" fill="none" stroke="#CFE6EA" stroke-width="21.08" stroke-linecap="round" stroke-linejoin="round"/><path d="M1117.84,501.4 L1107.92,569.6 L1110.4,644.0" fill="none" stroke="#2B4A5E" stroke-width="35.08" stroke-linecap="round" stroke-linejoin="round"/><path d="M1117.84,501.4 L1107.92,569.6 L1110.4,644.0" fill="none" stroke="#CFE6EA" stroke-width="21.08" stroke-linecap="round" stroke-linejoin="round"/></svg>