<svg xmlns="http://www.w3.org/2000/svg" width="1920" height="1080" viewBox="0 0 1920 1080"><defs><linearGradient id="g" x1="0" y1="0" x2="0" y2="1"><stop offset="0" stop-color="#F5FAFA"/><stop offset="1" stop-color="#E3F0F0"/></linearGradient><radialGradient id="glow"><stop offset="0" stop-color="#FFFFFF" stop-opacity=".85"/><stop offset="1" stop-color="#FFFFFF" stop-opacity="0"/></radialGradient></defs><rect width="1920" height="1080" fill="url(#g)"/><rect y="830" width="1920" height="250" fill="#D7E8E7"/><line x1="0" y1="830" x2="1920" y2="830" stroke="#2B4A5E" stroke-width="4" opacity=".4"/><defs><filter id="blur"><feGaussianBlur stdDeviation="5"/></filter></defs><rect x="140" y="300" width="980" height="60" rx="8" fill="#EAF3F4" stroke="#2B4A5E" stroke-width="7"/><rect x="140" y="360" width="980" height="200" rx="8" fill="#F4F9F9" stroke="#2B4A5E" stroke-width="7"/><rect x="220" y="160" width="240" height="100" rx="8" fill="#FFFFFF" stroke="#2B4A5E" stroke-width="7"/><rect x="520" y="150" width="180" height="120" rx="8" fill="#E2F0F2" stroke="#2B4A5E" stroke-width="7"/><g opacity="0.25" filter="url(#blur)"><path d="M278.16,596.0 L276.6,814.4" fill="none" stroke="#2B4A5E" stroke-width="49.88" stroke-linecap="round" stroke-linejoin="round"/><path d="M278.16,596.0 L276.6,814.4" fill="none" stroke="#CFE6EA" stroke-width="35.88" stroke-linecap="round" stroke-linejoin="round"/><path d="M321.84,596.0 L323.4,814.4" fill="none" stroke="#2B4A5E" stroke-width="49.88" stroke-linecap="round" stroke-linejoin="round"/><path d="M321.84,596.0 L323.4,814.4" fill="none" stroke="#CFE6EA" stroke-width="35.88" stroke-linecap="round" stroke-linejoin="round"/><path d="M254.76,819.08 h39.0 v14.040000000000001 h-42.120000000000005 z" fill="#E9F1F3" stroke="#2B4A5E" stroke-width="7" stroke-linejoin="round" /><path d="M306.24,819.08 h39.0 v14.040000000000001 h-35.88 z" fill="#E9F1F3" stroke="#2B4A5E" stroke-width="7" stroke-linejoin="round" /><path d="M243.84,408.8 L206.39999999999998,463.4 L276.6,502.4" fill="none" stroke="#2B4A5E" stroke-width="40.519999999999996" stroke-linecap="round" stroke-linejoin="round"/><path d="M243.84,408.8 L206.39999999999998,463.4 L276.6,502.4" fill="none" stroke="#CFE0E8" stroke-width="26.52" stroke-linecap="round" stroke-linejoin="round"/><path d="M356.16,408.8 L409.2,346.4 L417.0,284.0" fill="none" stroke="#2B4A5E" stroke-width="40.519999999999996" stroke-linecap="round" stroke-linejoin="round"/><path d="M356.16,408.8 L409.2,346.4 L417.0,284.0" fill="none" stroke="#CFE0E8" stroke-width="26.52" stroke-linecap="round" stroke-linejoin="round"/><path d="M240.72,402.56 Q300,362.0 359.28,402.56 L349.92,603.8 L250.07999999999998,603.8 Z" fill="#CFE0E8" stroke="#2B4A5E" stroke-width="7" stroke-linejoin="round" /><path d="M279.72,382.28 L300,424.4 L320.28,382.28" fill="none" stroke="#2B4A5E" stroke-width="5.6000000000000005" stroke-linecap="round"/><path d="M300.0,373.7 L300.0,362.0" fill="none" stroke="#2B4A5E" stroke-width="34.28" stroke-linecap="round" stroke-linejoin="round"/><path d="M300.0,373.7 L300.0,362.0" fill="none" stroke="#F7FBFB" stroke-width="20.28" stroke-linecap="round" stroke-linejoin="round"/><ellipse cx="300.0" cy="330.79999999999995" rx="32.292" ry="35.88" transform="rotate(0 300.0 330.79999999999995)" fill="#F7FBFB" stroke="#2B4A5E" stroke-width="7"/></g><g opacity="0.3" filter="url(#blur)"><path d="M498.16,596.0 L496.6,814.4" fill="none" stroke="#2B4A5E" stroke-width="49.88" stroke-linecap="round" stroke-linejoin="round"/><path d="M498.16,596.0 L496.6,814.4" fill="none" stroke="#CFE6EA" stroke-width="35.88" stroke-linecap="round" stroke-linejoin="round"/><path d="M541.84,596.0 L543.4,814.4" fill="none" stroke="#2B4A5E" stroke-width="49.88" stroke-linecap="round" stroke-linejoin="round"/><path d="M541.84,596.0 L543.4,814.4" fill="none" stroke="#CFE6EA" stroke-width="35.88" stroke-linecap="round" stroke-linejoin="round"/><path d="M474.76,819.08 h39.0 v14.040000000000001 h-42.120000000000005 z" fill="#E9F1F3" stroke="#2B4A5E" stroke-width="7" stroke-linejoin="round" /><path d="M526.24,819.08 h39.0 v14.040000000000001 h-35.88 z" fill="#E9F1F3" stroke="#2B4A5E" stroke-width="7" stroke-linejoin="round" /><path d="M463.84,408.8 L426.4,463.4 L496.6,502.4" fill="none" stroke="#2B4A5E" stroke-width="40.519999999999996" stroke-linecap="round" stroke-linejoin="round"/><path d="M463.84,408.8 L426.4,463.4 L496.6,502.4" fill="none" stroke="#CFE0E8" stroke-width="26.52" stroke-linecap="round" stroke-linejoin="round"/><path d="M576.16,408.8 L629.2,346.4 L637.0,284.0" fill="none" stroke="#2B4A5E" stroke-width="40.519999999999996" stroke-linecap="round" stroke-linejoin="round"/><path d="M576.16,408.8 L629.2,346.4 L637.0,284.0" fill="none" stroke="#CFE0E8" stroke-width="26.52" stroke-linecap="round" stroke-linejoin="round"/><path d="M460.72,402.56 Q520,362.0 579.28,402.56 L569.92,603.8 L470.08,603.8 Z" fill="#CFE0E8" stroke="#2B4A5E" stroke-width="7" stroke-linejoin="round" /><path d="M499.72,382.28 L520,424.4 L540.28,382.28" fill="none" stroke="#2B4A5E" stroke-width="5.6000000000000005" stroke-linecap="round"/><path d="M520.0,373.7 L520.0,362.0" fill="none" stroke="#2B4A5E" stroke-width="34.28" stroke-linecap="round" stroke-linejoin="round"/><path d="M520.0,373.7 L520.0,362.0" fill="none" stroke="#F7FBFB" stroke-width="20.28" stroke-linecap="round" stroke-linejoin="round"/><ellipse cx="520.0" cy="330.79999999999995" rx="32.292" ry="35.88" transform="rotate(0 520.0 330.79999999999995)" fill="#F7FBFB" stroke="#2B4A5E" stroke-width="7"/></g><g opacity="0.22" filter="url(#blur)"><path d="M738.16,596.0 L736.6,814.4" fill="none" stroke="#2B4A5E" stroke-width="49.88" stroke-linecap="round" stroke-linejoin="round"/><path d="M738.16,596.0 L736.6,814.4" fill="none" stroke="#CFE6EA" stroke-width="35.88" stroke-linecap="round" stroke-linejoin="round"/><path d="M781.84,596.0 L783.4,814.4" fill="none" stroke="#2B4A5E" stroke-width="49.88" stroke-linecap="round" stroke-linejoin="round"/><path d="M781.84,596.0 L783.4,814.4" fill="none" stroke="#CFE6EA" stroke-width="35.88" stroke-linecap="round" stroke-linejoin="round"/><path d="M714.76,819.08 h39.0 v14.040000000000001 h-42.120000000000005 z" fill="#E9F1F3" stroke="#2B4A5E" stroke-width="7" stroke-linejoin="round" /><path d="M766.24,819.08 h39.0 v14.040000000000001 h-35.88 z" fill="#E9F1F3" stroke="#2B4A5E" stroke-width="7" stroke-linejoin="round" /><path d="M703.84,408.8 L666.4,463.4 L736.6,502.4" fill="none" stroke="#2B4A5E" stroke-width="40.519999999999996" stroke-linecap="round" stroke-linejoin="round"/><path d="M703.84,408.8 L666.4,463.4 L736.6,502.4" fill="none" stroke="#CFE0E8" stroke-width="26.52" stroke-linecap="round" stroke-linejoin="round"/><path d="M816.16,408.8 L869.2,346.4 L877.0,284.0" fill="none" stroke="#2B4A5E" stroke-width="40.519999999999996" stroke-linecap="round" stroke-linejoin="round"/><path d="M816.16,408.8 L869.2,346.4 L877.0,284.0" fill="none" stroke="#CFE0E8" stroke-width="26.52" stroke-linecap="round" stroke-linejoin="round"/><path d="M700.72,402.56 Q760,362.0 819.28,402.56 L809.92,603.8 L710.08,603.8 Z" fill="#CFE0E8" stroke="#2B4A5E" stroke-width="7" stroke-linejoin="round" /><path d="M739.72,382.28 L760,424.4 L780.28,382.28" fill="none" stroke="#2B4A5E" stroke-width="5.6000000000000005" stroke-linecap="round"/><path d="M760.0,373.7 L760.0,362.0" fill="none" stroke="#2B4A5E" stroke-width="34.28" stroke-linecap="round" stroke-linejoin="round"/><path d="M760.0,373.7 L760.0,362.0" fill="none" stroke="#F7FBFB" stroke-width="20.28" stroke-linecap="round" stroke-linejoin="round"/><ellipse cx="760.0" cy="330.79999999999995" rx="32.292" ry="35.88" transform="rotate(0 760.0 330.79999999999995)" fill="#F7FBFB" stroke="#2B4A5E" stroke-width="7"/></g><g opacity="0.28" filter="url(#blur)"><path d="M958.16,596.0 L956.6,814.4" fill="none" stroke="#2B4A5E" stroke-width="49.88" stroke-linecap="round" stroke-linejoin="round"/><path d="M958.16,596.0 L956.6,814.4" fill="none" stroke="#CFE6EA" stroke-width="35.88" stroke-linecap="round" stroke-linejoin="round"/><path d="M1001.84,596.0 L1003.4,814.4" fill="none" stroke="#2B4A5E" stroke-width="49.88" stroke-linecap="round" stroke-linejoin="round"/><path d="M1001.84,596.0 L1003.4,814.4" fill="none" stroke="#CFE6EA" stroke-width="35.88" stroke-linecap="round" stroke-linejoin="round"/><path d="M934.76,819.08 h39.0 v14.040000000000001 h-42.120000000000005 z" fill="#E9F1F3" stroke="#2B4A5E" stroke-width="7" stroke-linejoin="round" /><path d="M986.24,819.08 h39.0 v14.040000000000001 h-35.88 z" fill="#E9F1F3" stroke="#2B4A5E" stroke-width="7" stroke-linejoin="round" /><path d="M923.84,408.8 L886.4,463.4 L956.6,502.4" fill="none" stroke="#2B4A5E" stroke-width="40.519999999999996" stroke-linecap="round" stroke-linejoin="round"/><path d="M923.84,408.8 L886.4,463.4 L956.6,502.4" fill="none" stroke="#CFE0E8" stroke-width="26.52" stroke-linecap="round" stroke-linejoin="round"/><path d="M1036.16,408.8 L1089.2,346.4 L1097.0,284.0" fill="none" stroke="#2B4A5E" stroke-width="40.519999999999996" stroke-linecap="round" stroke-linejoin="round"/><path d="M1036.16,408.8 L1089.2,346.4 L1097.0,284.0" fill="none" stroke="#CFE0E8" stroke-width="26.52" stroke-linecap="round" stroke-linejoin="round"/><path d="M920.72,402.56 Q980,362.0 1039.28,402.56 L1029.92,603.8 L930.08,603.8 Z" fill="#CFE0E8" stroke="#2B4A5E" stroke-width="7" stroke-linejoin="round" /><path d="M959.72,382.28 L980,424.4 L1000.28,382.28" fill="none" stroke="#2B4A5E" stroke-width="5.6000000000000005" stroke-linecap="round"/><path d="M980.0,373.7 L980.0,362.0" fill="none" stroke="#2B4A5E" stroke-width="34.28" stroke-linecap="round" stroke-linejoin="round"/><path d="M980.0,373.7 L980.0,362.0" fill="none" stroke="#F7FBFB" stroke-width="20.28" stroke-linecap="round" stroke-linejoin="round"/><ellipse cx="980.0" cy="330.79999999999995" rx="32.292" ry="35.88" transform="rotate(0 980.0 330.79999999999995)" fill="#F7FBFB" stroke="#2B4A5E" stroke-width="7"/></g><path d="M1700,760 q-40.0,-60.0 -64.0,-102.0 q36.0,12.0 64.0,102.0 z" fill="#A8D2C6" stroke="#2B4A5E" stroke-width="4.8999999999999995"/><path d="M1700,760 q40.0,-60.0 64.0,-102.0 q-36.0,12.0 -64.0,102.0 z" fill="#A8D2C6" stroke="#2B4A5E" stroke-width="4.8999999999999995"/><path d="M1700,760 q-14.0,-90.0 -22.400000000000002,-153.0 q12.6,18.0 22.400000000000002,153.0 z" fill="#A8D2C6" stroke="#2B4A5E" stroke-width="4.8999999999999995"/><path d="M1700,760 q18.0,-84.0 28.8,-142.79999999999998 q-16.2,16.8 -28.8,142.79999999999998 z" fill="#A8D2C6" stroke="#2B4A5E" stroke-width="4.8999999999999995"/><path d="M1654.0,760 h92.0 l-12.0,86.0 h-68.0 z" fill="#E3EFF1" stroke="#2B4A5E" stroke-width="7" stroke-linejoin="round" /><ellipse cx="1450" cy="834" rx="110" ry="14" fill="#2B4A5E" opacity=".08"/><path d="M1422.56,536.0 L1420.6,810.4" fill="none" stroke="#2B4A5E" stroke-width="59.08" stroke-linecap="round" stroke-linejoin="round"/><path d="M1422.56,536.0 L1420.6,810.4" fill="none" stroke="#CFE6EA" stroke-width="45.08" stroke-linecap="round" stroke-linejoin="round"/><path d="M1477.44,536.0 L1479.4,810.4" fill="none" stroke="#2B4A5E" stroke-width="59.08" stroke-linecap="round" stroke-linejoin="round"/><path d="M1477.44,536.0 L1479.4,810.4" fill="none" stroke="#CFE6EA" stroke-width="45.08" stroke-linecap="round" stroke-linejoin="round"/><path d="M1393.16,816.28 h49.0 v17.64 h-52.92 z" fill="#E9F1F3" stroke="#2B4A5E" stroke-width="7" stroke-linejoin="round" /><path d="M1457.84,816.28 h49.0 v17.64 h-45.08 z" fill="#E9F1F3" stroke="#2B4A5E" stroke-width="7" stroke-linejoin="round" /><path d="M1383.36,340.0 L1381.4,436.04 L1371.6,544.8199999999999" fill="none" stroke="#2B4A5E" stroke-width="47.32" stroke-linecap="round" stroke-linejoin="round"/><path d="M1383.36,340.0 L1381.4,436.04 L1371.6,544.8199999999999" fill="none" stroke="#CFE6EA" stroke-width="33.32" stroke-linecap="round" stroke-linejoin="round"/><path d="M1516.64,340.0 L1518.6,436.04 L1528.4,544.8199999999999" fill="none" stroke="#2B4A5E" stroke-width="47.32" stroke-linecap="round" stroke-linejoin="round"/><path d="M1516.64,340.0 L1518.6,436.04 L1528.4,544.8199999999999" fill="none" stroke="#CFE6EA" stroke-width="33.32" stroke-linecap="round" stroke-linejoin="round"/><path d="M1375.52,328.24 Q1450,242.0 1524.48,328.24 L1512.72,545.8 L1387.28,545.8 Z" fill="#CFE6EA" stroke="#2B4A5E" stroke-width="7" stroke-linejoin="round" /><path d="M1424.52,281.592 L1450,338.04 L1475.48,281.592" fill="none" stroke="#2B4A5E" stroke-width="5.6000000000000005" stroke-linecap="round"/><path d="M1450.0,274.34000000000003 L1450.0,272.9680000000001" fill="none" stroke="#2B4A5E" stroke-width="39.480000000000004" stroke-linecap="round" stroke-linejoin="round"/><path d="M1450.0,274.34000000000003 L1450.0,272.9680000000001" fill="none" stroke="#F7FBFB" stroke-width="25.48" stroke-linecap="round" stroke-linejoin="round"/><ellipse cx="1450.0" cy="253.76" rx="40.572" ry="45.08" transform="rotate(0 1450.0 253.76)" fill="#F7FBFB" stroke="#2B4A5E" stroke-width="7"/></svg>