<svg xmlns="http://www.w3.org/2000/svg" width="1920" height="1080" viewBox="0 0 1920 1080"><defs><linearGradient id="g" x1="0" y1="0" x2="0" y2="1"><stop offset="0" stop-color="#F5FAFA"/><stop offset="1" stop-color="#E3F0F0"/></linearGradient><radialGradient id="glow"><stop offset="0" stop-color="#FFFFFF" stop-opacity=".85"/><stop offset="1" stop-color="#FFFFFF" stop-opacity="0"/></radialGradient></defs><rect width="1920" height="1080" fill="url(#g)"/><rect y="830" width="1920" height="250" fill="#D7E8E7"/><line x1="0" y1="830" x2="1920" y2="830" stroke="#2B4A5E" stroke-width="4" opacity=".4"/><rect x="1180" y="150" width="360" height="680" rx="4" fill="#E6EEF0" stroke="#2B4A5E" stroke-width="7"/><circle cx="1490" cy="500" r="12" fill="#2B4A5E"/><rect x="1260" y="210" width="200" height="60" rx="4" fill="#FFFFFF" stroke="#2B4A5E" stroke-width="5"/><ellipse cx="860" cy="890" rx="300" ry="54" fill="none" stroke="#2A7F8C" stroke-width="6" stroke-dasharray="20 16" opacity=".45"/><path d="M1150,880 l-30,-16 l4,34 z" fill="#2A7F8C" opacity=".45"/><ellipse cx="900" cy="834" rx="110" ry="14" fill="#2B4A5E" opacity=".08"/><path d="M873.12,542.0 L871.2,810.8" fill="none" stroke="#2B4A5E" stroke-width="58.16" stroke-linecap="round" stroke-linejoin="round"/><path d="M873.12,542.0 L871.2,810.8" fill="none" stroke="#CFE6EA" stroke-width="44.16" stroke-linecap="round" stroke-linejoin="round"/><path d="M926.88,542.0 L928.8,810.8" fill="none" stroke="#2B4A5E" stroke-width="58.16" stroke-linecap="round" stroke-linejoin="round"/><path d="M926.88,542.0 L928.8,810.8" fill="none" stroke="#CFE6EA" stroke-width="44.16" stroke-linecap="round" stroke-linejoin="round"/><path d="M844.32,816.56 h48.0 v17.28 h-51.839999999999996 z" fill="#E9F1F3" stroke="#2B4A5E" stroke-width="7" stroke-linejoin="round" /><path d="M907.68,816.56 h48.0 v17.28 h-44.16 z" fill="#E9F1F3" stroke="#2B4A5E" stroke-width="7" stroke-linejoin="round" /><path d="M834.72,350.0 L832.8,444.08000000000004 L823.2,550.64" fill="none" stroke="#2B4A5E" stroke-width="46.64" stroke-linecap="round" stroke-linejoin="round"/><path d="M834.72,350.0 L832.8,444.08000000000004 L823.2,550.64" fill="none" stroke="#CFE6EA" stroke-width="32.64" stroke-linecap="round" stroke-linejoin="round"/><path d="M965.28,350.0 L967.2,444.08000000000004 L976.8,550.64" fill="none" stroke="#2B4A5E" stroke-width="46.64" stroke-linecap="round" stroke-linejoin="round"/><path d="M965.28,350.0 L967.2,444.08000000000004 L976.8,550.64" fill="none" stroke="#CFE6EA" stroke-width="32.64" stroke-linecap="round" stroke-linejoin="round"/><path d="M827.04,338.48 Q900,254.0 972.96,338.48 L961.44,551.6 L838.56,551.6 Z" fill="#CFE6EA" stroke="#2B4A5E" stroke-width="7" stroke-linejoin="round" /><path d="M875.04,292.784 L900,348.08000000000004 L924.96,292.784" fill="none" stroke="#2B4A5E" stroke-width="5.6000000000000005" stroke-linecap="round"/><path d="M900.0,285.68000000000006 L900.0,281.264" fill="none" stroke="#2B4A5E" stroke-width="38.96" stroke-linecap="round" stroke-linejoin="round"/><path d="M900.0,285.68000000000006 L900.0,281.264" fill="none" stroke="#F7FBFB" stroke-width="24.96" stroke-linecap="round" stroke-linejoin="round"/><ellipse cx="900.0" cy="257.84000000000003" rx="39.744" ry="44.16" transform="rotate(0 900.0 257.84000000000003)" fill="#F7FBFB" stroke="#2B4A5E" stroke-width="7"/></svg>