<svg xmlns="http://www.w3.org/2000/svg" width="1080" height="1920" viewBox="0 0 1080 1920"><rect width="1080" height="1920" fill="#DCEBEA"/><g transform="translate(-54,-95) scale(1.1)"><defs><linearGradient id="g" x1="0" y1="0" x2="0" y2="1"><stop offset="0" stop-color="#F2F7F8"/><stop offset="1" stop-color="#E6EFF1"/></linearGradient></defs><rect width="1080" height="1920" fill="url(#g)"/><rect y="1300" width="1080" height="1920" fill="#D0DEE1"/><line x1="0" y1="1300" x2="1080" y2="1300" stroke="#2B4A5E" stroke-width="4.2" opacity=".5"/><rect x="60" y="380" width="300" height="700" rx="6" fill="#F4F8F8" stroke="#2B4A5E" stroke-width="7" /><path d="M60,380 h50 l-6,70 q-19,18 -38,0 z" fill="#F3C9B8" stroke="#2B4A5E" stroke-width="4.8999999999999995" stroke-linejoin="round" /><path d="M110,380 h50 l-6,70 q-19,18 -38,0 z" fill="#FFFFFF" stroke="#2B4A5E" stroke-width="4.8999999999999995" stroke-linejoin="round" /><path d="M160,380 h50 l-6,70 q-19,18 -38,0 z" fill="#F3C9B8" stroke="#2B4A5E" stroke-width="4.8999999999999995" stroke-linejoin="round" /><path d="M210,380 h50 l-6,70 q-19,18 -38,0 z" fill="#FFFFFF" stroke="#2B4A5E" stroke-width="4.8999999999999995" stroke-linejoin="round" /><path d="M260,380 h50 l-6,70 q-19,18 -38,0 z" fill="#F3C9B8" stroke="#2B4A5E" stroke-width="4.8999999999999995" stroke-linejoin="round" /><path d="M310,380 h50 l-6,70 q-19,18 -38,0 z" fill="#FFFFFF" stroke="#2B4A5E" stroke-width="4.8999999999999995" stroke-linejoin="round" /><rect x="90" y="500" width="240" height="300" rx="6" fill="#EAF6FA" stroke="#2B4A5E" stroke-width="7" /><circle cx="160" cy="700" r="44" fill="#CFE6DD" stroke="#2B4A5E" stroke-width="7" /><rect x="220" y="620" width="80" height="120" rx="8" fill="#F3C9B8" stroke="#2B4A5E" stroke-width="7" /><path d="M270,542 Q273.24,556.76 288,560 Q273.24,563.24 270,578 Q266.76,563.24 252,560 Q266.76,556.76 270,542 Z" fill="#FFFFFF" opacity="1.0" stroke="#2B4A5E" stroke-width="4.2"/><rect x="380" y="380" width="300" height="700" rx="6" fill="#F4F8F8" stroke="#2B4A5E" stroke-width="7" /><path d="M380,380 h50 l-6,70 q-19,18 -38,0 z" fill="#BFD9EE" stroke="#2B4A5E" stroke-width="4.8999999999999995" stroke-linejoin="round" /><path d="M430,380 h50 l-6,70 q-19,18 -38,0 z" fill="#FFFFFF" stroke="#2B4A5E" stroke-width="4.8999999999999995" stroke-linejoin="round" /><path d="M480,380 h50 l-6,70 q-19,18 -38,0 z" fill="#BFD9EE" stroke="#2B4A5E" stroke-width="4.8999999999999995" stroke-linejoin="round" /><path d="M530,380 h50 l-6,70 q-19,18 -38,0 z" fill="#FFFFFF" stroke="#2B4A5E" stroke-width="4.8999999999999995" stroke-linejoin="round" /><path d="M580,380 h50 l-6,70 q-19,18 -38,0 z" fill="#BFD9EE" stroke="#2B4A5E" stroke-width="4.8999999999999995" stroke-linejoin="round" /><path d="M630,380 h50 l-6,70 q-19,18 -38,0 z" fill="#FFFFFF" stroke="#2B4A5E" stroke-width="4.8999999999999995" stroke-linejoin="round" /><rect x="410" y="500" width="240" height="300" rx="6" fill="#EAF6FA" stroke="#2B4A5E" stroke-width="7" /><circle cx="480" cy="700" r="44" fill="#F6E7B0" stroke="#2B4A5E" stroke-width="7" /><rect x="540" y="620" width="80" height="120" rx="8" fill="#BFD9EE" stroke="#2B4A5E" stroke-width="7" /><path d="M590,542 Q593.24,556.76 608,560 Q593.24,563.24 590,578 Q586.76,563.24 572,560 Q586.76,556.76 590,542 Z" fill="#FFFFFF" opacity="1.0" stroke="#2B4A5E" stroke-width="4.2"/><rect x="700" y="380" width="300" height="700" rx="6" fill="#F4F8F8" stroke="#2B4A5E" stroke-width="7" /><path d="M700,380 h50 l-6,70 q-19,18 -38,0 z" fill="#CFE6C9" stroke="#2B4A5E" stroke-width="4.8999999999999995" stroke-linejoin="round" /><path d="M750,380 h50 l-6,70 q-19,18 -38,0 z" fill="#FFFFFF" stroke="#2B4A5E" stroke-width="4.8999999999999995" stroke-linejoin="round" /><path d="M800,380 h50 l-6,70 q-19,18 -38,0 z" fill="#CFE6C9" stroke="#2B4A5E" stroke-width="4.8999999999999995" stroke-linejoin="round" /><path d="M850,380 h50 l-6,70 q-19,18 -38,0 z" fill="#FFFFFF" stroke="#2B4A5E" stroke-width="4.8999999999999995" stroke-linejoin="round" /><path d="M900,380 h50 l-6,70 q-19,18 -38,0 z" fill="#CFE6C9" stroke="#2B4A5E" stroke-width="4.8999999999999995" stroke-linejoin="round" /><path d="M950,380 h50 l-6,70 q-19,18 -38,0 z" fill="#FFFFFF" stroke="#2B4A5E" stroke-width="4.8999999999999995" stroke-linejoin="round" /><rect x="730" y="500" width="240" height="300" rx="6" fill="#EAF6FA" stroke="#2B4A5E" stroke-width="7" /><circle cx="800" cy="700" r="44" fill="#F3C9B8" stroke="#2B4A5E" stroke-width="7" /><rect x="860" y="620" width="80" height="120" rx="8" fill="#CFE6C9" stroke="#2B4A5E" stroke-width="7" /><path d="M910,542 Q913.24,556.76 928,560 Q913.24,563.24 910,578 Q906.76,563.24 892,560 Q906.76,556.76 910,542 Z" fill="#FFFFFF" opacity="1.0" stroke="#2B4A5E" stroke-width="4.2"/><defs><radialGradient id="fade"><stop offset="0" stop-color="#DCE3E5" stop-opacity=".85"/><stop offset=".6" stop-color="#DCE3E5" stop-opacity=".6"/><stop offset="1" stop-color="#DCE3E5" stop-opacity="0"/></radialGradient></defs><ellipse cx="530" cy="760" rx="420" ry="620" fill="url(#fade)"/><ellipse cx="530" cy="1296" rx="110" ry="16" fill="#2B4A5E" opacity=".08"/><path d="M500.32,972.0 L498.2,1268.8" fill="none" stroke="#2B4A5E" stroke-width="62.760000000000005" stroke-linecap="round" stroke-linejoin="round"/><path d="M500.32,972.0 L498.2,1268.8" fill="none" stroke="#C4D4DF" stroke-width="48.760000000000005" stroke-linecap="round" stroke-linejoin="round"/><path d="M559.68,972.0 L561.8,1268.8" fill="none" stroke="#2B4A5E" stroke-width="62.760000000000005" stroke-linecap="round" stroke-linejoin="round"/><path d="M559.68,972.0 L561.8,1268.8" fill="none" stroke="#C4D4DF" stroke-width="48.760000000000005" stroke-linecap="round" stroke-linejoin="round"/><path d="M468.52,1275.16 h53.0 v19.080000000000002 h-57.24 z" fill="#E9F1F3" stroke="#2B4A5E" stroke-width="7" stroke-linejoin="round" /><path d="M538.48,1275.16 h53.0 v19.080000000000002 h-48.760000000000005 z" fill="#E9F1F3" stroke="#2B4A5E" stroke-width="7" stroke-linejoin="round" /><path d="M457.92,740.92 L450.5,854.3399999999999 L445.2,976.77" fill="none" stroke="#2B4A5E" stroke-width="50.04" stroke-linecap="round" stroke-linejoin="round"/><path d="M457.92,740.92 L450.5,854.3399999999999 L445.2,976.77" fill="none" stroke="#EEF3F4" stroke-width="36.04" stroke-linecap="round" stroke-linejoin="round"/><path d="M602.08,740.92 L609.5,854.3399999999999 L614.8,976.77" fill="none" stroke="#2B4A5E" stroke-width="50.04" stroke-linecap="round" stroke-linejoin="round"/><path d="M602.08,740.92 L609.5,854.3399999999999 L614.8,976.77" fill="none" stroke="#EEF3F4" stroke-width="36.04" stroke-linecap="round" stroke-linejoin="round"/><path d="M449.44,728.1999999999999 Q530,654.0 610.56,728.1999999999999 L597.84,982.5999999999999 L462.15999999999997,982.5999999999999 Z" fill="#EEF3F4" stroke="#2B4A5E" stroke-width="7" stroke-linejoin="round" /><path d="M502.44,689.192 L530,748.3399999999999 L557.56,689.192" fill="none" stroke="#2B4A5E" stroke-width="5.6000000000000005" stroke-linecap="round"/><path d="M530.0,679.4399999999999 L530.0,668.6279999999999" fill="none" stroke="#2B4A5E" stroke-width="41.56" stroke-linecap="round" stroke-linejoin="round"/><path d="M530.0,679.4399999999999 L530.0,668.6279999999999" fill="none" stroke="#F7FBFB" stroke-width="27.560000000000002" stroke-linecap="round" stroke-linejoin="round"/><ellipse cx="530.0" cy="633.86" rx="43.88400000000001" ry="48.760000000000005" transform="rotate(6 530.0 633.86)" fill="#F7FBFB" stroke="#2B4A5E" stroke-width="7"/></g></svg>