<svg xmlns="http://www.w3.org/2000/svg" width="1080" height="1920" viewBox="0 0 1080 1920"><rect width="1080" height="1920" fill="#DCEBEA"/><g transform="translate(-54,-95) scale(1.1)"><defs><linearGradient id="g" x1="0" y1="0" x2="0" y2="1"><stop offset="0" stop-color="#F6FBFB"/><stop offset="1" stop-color="#E6F2F1"/></linearGradient></defs><rect width="1080" height="1920" fill="url(#g)"/><rect y="1300" width="1080" height="1920" fill="#DCEBEA"/><line x1="0" y1="1300" x2="1080" y2="1300" stroke="#2B4A5E" stroke-width="4.2" opacity=".5"/><rect x="130" y="280" width="300" height="400" rx="8" fill="#E2F1F4" stroke="#2B4A5E" stroke-width="7"/><path d="M130,560 q80,-70 150,-10 q70,-60 150,0 v120 h-300 z" fill="#CFE6DD"/><line x1="280.0" y1="280" x2="280.0" y2="680" stroke="#2B4A5E" stroke-width="7"/><line x1="130" y1="460.0" x2="430" y2="460.0" stroke="#2B4A5E" stroke-width="7"/><path d="M900,760 q-32.0,-48.0 -51.2,-81.60000000000001 q28.8,9.600000000000001 51.2,81.60000000000001 z" fill="#A8D2C6" stroke="#2B4A5E" stroke-width="4.8999999999999995"/><path d="M900,760 q32.0,-48.0 51.2,-81.60000000000001 q-28.8,9.600000000000001 -51.2,81.60000000000001 z" fill="#A8D2C6" stroke="#2B4A5E" stroke-width="4.8999999999999995"/><path d="M900,760 q-11.200000000000001,-72.0 -17.92,-122.4 q10.08,14.4 17.92,122.4 z" fill="#A8D2C6" stroke="#2B4A5E" stroke-width="4.8999999999999995"/><path d="M900,760 q14.4,-67.2 23.040000000000003,-114.24 q-12.96,13.440000000000001 -23.040000000000003,114.24 z" fill="#A8D2C6" stroke="#2B4A5E" stroke-width="4.8999999999999995"/><path d="M863.2,760 h73.60000000000001 l-9.600000000000001,68.8 h-54.400000000000006 z" fill="#E3EFF1" stroke="#2B4A5E" stroke-width="7" stroke-linejoin="round" /><rect x="760" y="300" width="180" height="200" rx="8" fill="#FFFFFF" stroke="#2B4A5E" stroke-width="7" /><line x1="790" y1="350" x2="910" y2="350" stroke="#B5D3DA" stroke-width="9" stroke-linecap="round" /><line x1="790" y1="390" x2="880" y2="390" stroke="#B5D3DA" stroke-width="9" stroke-linecap="round" /><path d="M560,920 L560,1296" fill="none" stroke="#2B4A5E" stroke-width="28" stroke-linecap="round" stroke-linejoin="round"/><path d="M560,920 L560,1296" fill="none" stroke="#EEF4F5" stroke-width="14" stroke-linecap="round" stroke-linejoin="round"/><path d="M960,920 L960,1296" fill="none" stroke="#2B4A5E" stroke-width="28" stroke-linecap="round" stroke-linejoin="round"/><path d="M960,920 L960,1296" fill="none" stroke="#EEF4F5" stroke-width="14" stroke-linecap="round" stroke-linejoin="round"/><path d="M520,900 h480 v26 h-480 z" fill="#EEF4F5" stroke="#2B4A5E" stroke-width="7" stroke-linejoin="round" /><path d="M600,900 L650,720 L790,740 L770,900 Z" fill="#FFFFFF" stroke="#2B4A5E" stroke-width="7" stroke-linejoin="round" /><path d="M770,900 L790,740 L930,720 L960,900 Z" fill="#FFFFFF" stroke="#2B4A5E" stroke-width="7" stroke-linejoin="round" /><line x1="650" y1="770" x2="770" y2="776" stroke="#B5D3DA" stroke-width="4" stroke-linecap="round" /><line x1="795" y1="776" x2="925" y2="770" stroke="#B5D3DA" stroke-width="4" stroke-linecap="round" /><line x1="642" y1="810" x2="766" y2="816" stroke="#B5D3DA" stroke-width="4" stroke-linecap="round" /><line x1="799" y1="816" x2="933" y2="810" stroke="#B5D3DA" stroke-width="4" stroke-linecap="round" /><line x1="634" y1="850" x2="762" y2="856" stroke="#B5D3DA" stroke-width="4" stroke-linecap="round" /><line x1="803" y1="856" x2="941" y2="850" stroke="#B5D3DA" stroke-width="4" stroke-linecap="round" /><line x1="705" y1="732" x2="690" y2="892" stroke="#B5D3DA" stroke-width="4" stroke-linecap="round" /><line x1="870" y1="732" x2="885" y2="892" stroke="#B5D3DA" stroke-width="4" stroke-linecap="round" /><path d="M300,1040 h200 v24 h-200 z" fill="#D7E5E8" stroke="#2B4A5E" stroke-width="7" stroke-linejoin="round" /><path d="M320,1064 L320,1296" fill="none" stroke="#2B4A5E" stroke-width="26" stroke-linecap="round" stroke-linejoin="round"/><path d="M320,1064 L320,1296" fill="none" stroke="#D7E5E8" stroke-width="12" stroke-linecap="round" stroke-linejoin="round"/><path d="M480,1064 L480,1296" fill="none" stroke="#2B4A5E" stroke-width="26" stroke-linecap="round" stroke-linejoin="round"/><path d="M480,1064 L480,1296" fill="none" stroke="#D7E5E8" stroke-width="12" stroke-linecap="round" stroke-linejoin="round"/><path d="M330.0,1016.0 L490.0,1022.0 L500.0,1280.0" fill="none" stroke="#2B4A5E" stroke-width="62.0" stroke-linecap="round" stroke-linejoin="round"/><path d="M330.0,1016.0 L490.0,1022.0 L500.0,1280.0" fill="none" stroke="#C4D4DF" stroke-width="48.0" stroke-linecap="round" stroke-linejoin="round"/><path d="M360.0,1016.0 L520.0,1028.0 L536.0,1276.0" fill="none" stroke="#2B4A5E" stroke-width="62.0" stroke-linecap="round" stroke-linejoin="round"/><path d="M360.0,1016.0 L520.0,1028.0 L536.0,1276.0" fill="none" stroke="#C4D4DF" stroke-width="48.0" stroke-linecap="round" stroke-linejoin="round"/><path d="M270.0,740.0 Q340.0,714.0 410.0,740.0 L400.0,1020.0 L280.0,1020.0 Z" fill="#EEF3F4" stroke="#2B4A5E" stroke-width="7" stroke-linejoin="round" /><path d="M400.0,760.0 L424.0,890.0 L490.0,980.0" fill="none" stroke="#2B4A5E" stroke-width="48.0" stroke-linecap="round" stroke-linejoin="round"/><path d="M400.0,760.0 L424.0,890.0 L490.0,980.0" fill="none" stroke="#EEF3F4" stroke-width="34.0" stroke-linecap="round" stroke-linejoin="round"/><path d="M340.0,730.0 L340.0,736.0" fill="none" stroke="#2B4A5E" stroke-width="40.0" stroke-linecap="round" stroke-linejoin="round"/><path d="M340.0,730.0 L340.0,736.0" fill="none" stroke="#F7FBFB" stroke-width="26.0" stroke-linecap="round" stroke-linejoin="round"/><ellipse cx="340.0" cy="706.0" rx="41.4" ry="46.0" transform="rotate(10 340.0 706.0)" fill="#F7FBFB" stroke="#2B4A5E" stroke-width="7"/></g></svg>