<svg xmlns="http://www.w3.org/2000/svg" width="1080" height="1920" viewBox="0 0 1080 1920"><rect width="1080" height="1920" fill="#DCEBEA"/><g transform="translate(-54,-95) scale(1.1)"><defs><linearGradient id="g" x1="0" y1="0" x2="0" y2="1"><stop offset="0" stop-color="#5E7387"/><stop offset="1" stop-color="#4D6274"/></linearGradient></defs><rect width="1080" height="1920" fill="url(#g)"/><rect y="1300" width="1080" height="1920" fill="#44586A"/><line x1="0" y1="1300" x2="1080" y2="1300" stroke="#2B4A5E" stroke-width="4.2" opacity=".5"/><rect x="620" y="250" width="320" height="380" rx="8" fill="#33495E" stroke="#2B4A5E" stroke-width="7"/><path d="M780,350 A40,40 0 1 0 780,430 A24.8,40 0 1 1 780,350 Z" fill="#F2F1DA" stroke="#2B4A5E" stroke-width="7" stroke-linejoin="round"/><circle cx="680" cy="320" r="4" fill="#FFFFFF"/><circle cx="880" cy="480" r="3" fill="#FFFFFF"/><line x1="780.0" y1="250" x2="780.0" y2="630" stroke="#2B4A5E" stroke-width="7"/><line x1="620" y1="421.0" x2="940" y2="421.0" stroke="#2B4A5E" stroke-width="7"/><defs><radialGradient id="mglow"><stop offset="0" stop-color="#BFD6E6" stop-opacity="0.18"/><stop offset="1" stop-color="#BFD6E6" stop-opacity="0"/></radialGradient></defs><circle cx="560" cy="900" r="360" fill="url(#mglow)"/><path d="M160,780 L160,1230" fill="none" stroke="#2B4A5E" stroke-width="32" stroke-linecap="round" stroke-linejoin="round"/><path d="M160,780 L160,1230" fill="none" stroke="#90A7B6" stroke-width="18" stroke-linecap="round" stroke-linejoin="round"/><path d="M920,940 L920,1230" fill="none" stroke="#2B4A5E" stroke-width="32" stroke-linecap="round" stroke-linejoin="round"/><path d="M920,940 L920,1230" fill="none" stroke="#90A7B6" stroke-width="18" stroke-linecap="round" stroke-linejoin="round"/><path d="M140,1000 h800 v70 h-800 z" fill="#A9BFCB" stroke="#2B4A5E" stroke-width="7" stroke-linejoin="round" /><path d="M180,936 q0,-26 26,-26 h150 q26,0 26,26 v64 h-202 z" fill="#C8D8E0" stroke="#2B4A5E" stroke-width="7" stroke-linejoin="round" /><g transform="rotate(-90 880 930)"><path d="M854.24,654.0 L852.4,911.6" fill="none" stroke="#2B4A5E" stroke-width="56.32" stroke-linecap="round" stroke-linejoin="round"/><path d="M854.24,654.0 L852.4,911.6" fill="none" stroke="#B3C6D1" stroke-width="42.32" stroke-linecap="round" stroke-linejoin="round"/><path d="M905.76,654.0 L907.6,911.6" fill="none" stroke="#2B4A5E" stroke-width="56.32" stroke-linecap="round" stroke-linejoin="round"/><path d="M905.76,654.0 L907.6,911.6" fill="none" stroke="#B3C6D1" stroke-width="42.32" stroke-linecap="round" stroke-linejoin="round"/><path d="M826.64,917.12 h46.0 v16.560000000000002 h-49.68 z" fill="#E9F1F3" stroke="#2B4A5E" stroke-width="7" stroke-linejoin="round" /><path d="M887.36,917.12 h46.0 v16.560000000000002 h-42.32 z" fill="#E9F1F3" stroke="#2B4A5E" stroke-width="7" stroke-linejoin="round" /><path d="M817.44,436.88 L806.4,543.5999999999999 L806.4,654.0" fill="none" stroke="#2B4A5E" stroke-width="45.28" stroke-linecap="round" stroke-linejoin="round"/><path d="M817.44,436.88 L806.4,543.5999999999999 L806.4,654.0" fill="none" stroke="#C8D8E0" stroke-width="31.28" stroke-linecap="round" stroke-linejoin="round"/><path d="M942.56,436.88 L953.6,543.5999999999999 L953.6,654.0" fill="none" stroke="#2B4A5E" stroke-width="45.28" stroke-linecap="round" stroke-linejoin="round"/><path d="M942.56,436.88 L953.6,543.5999999999999 L953.6,654.0" fill="none" stroke="#C8D8E0" stroke-width="31.28" stroke-linecap="round" stroke-linejoin="round"/><path d="M810.08,425.84 Q880,378.0 949.92,425.84 L938.88,663.2 L821.12,663.2 Z" fill="#C8D8E0" stroke="#2B4A5E" stroke-width="7" stroke-linejoin="round" /><path d="M856.08,401.91999999999996 L880,451.59999999999997 L903.92,401.91999999999996" fill="none" stroke="#2B4A5E" stroke-width="5.6000000000000005" stroke-linecap="round"/><path d="M880.0,391.79999999999995 L880.0,378.0" fill="none" stroke="#2B4A5E" stroke-width="37.92" stroke-linecap="round" stroke-linejoin="round"/><path d="M880.0,391.79999999999995 L880.0,378.0" fill="none" stroke="#F7FBFB" stroke-width="23.92" stroke-linecap="round" stroke-linejoin="round"/><ellipse cx="880.0" cy="341.19999999999993" rx="38.088" ry="42.32" transform="rotate(0 880.0 341.19999999999993)" fill="#F7FBFB" stroke="#2B4A5E" stroke-width="7"/></g><path d="M370,1010 q20,-140 220,-140 q300,-10 330,60 v80 z" fill="#9CB4C3" stroke="#2B4A5E" stroke-width="7" stroke-linejoin="round" /><path d="M260,824.8 C272.6,844.6 275.3,860.8 260,865.3 C244.7,860.8 247.4,844.6 260,824.8 Z" fill="#BFE3F0" stroke="#2B4A5E" stroke-width="4.2"/></g></svg>